M48
;Layer_Color=9474304
;FILE_FORMAT=2:5
INCH,LZ
;TYPE=PLATED
T1F00S00C0.01181
T2F00S00C0.01575
T5F00S00C0.03543
T6F00S00C0.03937
T7F00S00C0.06693
T8F00S00C0.07087
T9F00S00C0.07480
T10F00S00C0.12598
T11F00S00C0.17717
%
T01
X0075689Y0060728
X0078882Y0062899
X0082598Y0065099
X0085433Y0067425
X0089828Y0070276
X0092028Y0073228
X0094488Y0076083
X0097334Y0078382
X0099534Y0081398
X0101772Y008435
X0104528Y0086909
X0107185Y008937
X0109646Y0091929
X0112367Y0094685
X0115256Y0097441
X0116328Y0100394
X0119783Y0103445
X0122638Y0106004
X0125Y010876
X0127067Y0111811
X0129365Y0114961
X0131594Y011811
X0133991Y0121581
X013622Y0124508
X0138583Y0127756
X0140945Y0130807
X0143307Y0134252
X0147047Y0136614
X0149508Y0139469
X0152598Y0142323
X0154626Y0145866
X0152623Y0058268
X014539
X0136058
X0126246
X0112367
X010552
X0092288
X0085433Y0057087
X0163253Y0058268
X0177298
X0186354
X0196246
X020528
X0212465
X0225851
X0235497
X0245276
X0255251
X0265291
X0274739
X0284493
X0293671
X0303019
X0157972Y0148228
X016063Y0151438
X0163394Y0154724
X0315325Y0058491
X0324803Y0058268
X0456398Y0060699
X0459026Y0065209
X0462205Y0062899
X0463195Y0057411
X0465354Y0067421
X0467784Y0070212
X0470571Y0073228
X0472891Y007611
X0475222Y0078984
X0477669Y0081759
X0480405Y008425
X0482677Y008717
X0484877Y0089272
X0487372Y0092004
X049278Y0094783
X0490157Y0097539
X049846Y0099844
X0497441Y0103543
X0500002Y010884
X0503667Y0106082
X0503932Y0111811
X0507185Y0115059
X0512623Y0118098
X0509941Y0121555
X0514862Y0124508
X0517011Y0127701
X0519021Y0130807
X0521555Y0134252
X0524789Y0136633
X0527165Y0139469
X0532087Y0142323
X0529823Y0145965
X0535103Y0148228
X0537697Y0151575
X0542323Y0154626
X054252Y0058499
X0532087
X0522656Y0058323
X0512611Y0058499
X0502939
X0492705
X0480193
X0470635Y0058323
X0553787Y0058499
X056363Y0058627
X0572464
X0582131
X059252Y0058268
X0602835Y0058323
X0613071
X0623307
X063315
X0642599
X065221
X0662598Y0058268
X0673194
X0682026Y0058627
X0692946
X0702835Y0058323
X082874Y0060517
X0831867Y0065221
X0834893Y0062418
X0834764Y0057452
X0844572Y0058268
X0854396Y0058746
X08665Y0059141
X0876705Y0058863
X0886548Y0058728
X089577Y0058268
X0906024Y0058705
X0916358Y0058606
X0927724Y0058728
X0866358Y0094728
X0863583Y0097441
X0861122Y0092323
X085878Y0089272
X0856614Y0087072
X0854188Y0084278
X0851458Y0081781
X0849165Y0078877
X084685Y0075984
X0844465Y0073156
X0841532Y0070177
X0838904Y006748
X08215Y00472
X0868813Y0099795
X0871358Y0103445
X0876426Y0106016
X0874162Y0108945
X0878627Y0111713
X0881105Y0115157
X0885661Y0118059
X0883117Y012147
X0888469Y0124508
X0890948Y0127817
X089577Y0131004
X0893406Y0134433
X0900542Y0136734
X089797Y0139554
X0905906Y0142224
X090305Y0145823
X090904Y014813
X0911417Y0151476
X091624Y0154626
X0937567Y0058728
X0945771Y0059263
X0956068Y005902
X0966457Y0058213
X0977594Y0058268
X0987008
X0997244
X1007087
X1016536
X1026147
X1036535Y0058213
X1047131
X1055827Y0058708
X1066883
X1076772Y0058268
X1141302Y0106358
X1143915Y0104243
X1146818Y0102545
X1149943Y0101305
X1153225Y0100575
X1156578Y0100335
X1159925Y0100659
X1163184Y0101485
X1166282Y0102793
X1169141Y0104561
X1171709Y0106731
X1173866Y0109311
X1175613Y0112184
X1176904Y0115288
X1177713Y0118551
X117802Y0121899
X1177754Y0125251
X1176999Y0128527
X1175743Y0131646
X1174035Y0134542
Y0137905
Y0141267
Y0144629
Y0147991
Y0151353
Y0154716
X1138563Y0154241
Y0150878
Y0147516
Y0144154
Y0140792
Y0137429
X1138261Y0134081
X1136611Y0131151
X1135423Y0128006
X1134772Y0124707
X1134614Y0121349
X1134994Y0118008
X1135873Y0114763
X1137231Y0111687
X1139069Y0108872
X1138056Y0157564
X1136455Y0160521
X1135306Y0163681
X1134725Y0166992
X1134638Y0170353
X1135065Y0173688
X113599Y0176921
X1137391Y0179977
X1139289Y0182753
X1141574Y0185219
X1144217Y0187297
X1147143Y0188953
X1150285Y0190149
X1153582Y0190811
X1158514Y0190877
X1161826Y0190301
X1164992Y0189168
X1167956Y0187582
X117064Y0185556
X1172987Y0183149
X1174945Y0180416
X117642Y0177394
X1177434Y0174189
X1177927Y0170863
X1177913Y0167501
X1177391Y0164179
X1176336Y0160987
X1174823Y0157984
X1171709Y0248464
X1173866Y0251043
X1175613Y0253916
X1176904Y025702
X1177713Y0260284
X117802Y0263632
X1177754Y0266984
X1176999Y027026
X1175743Y0273379
X1174035Y0276275
Y0279637
Y0282999
Y0286362
Y0289724
Y0293086
Y0296448
X1174823Y0299717
X1176336Y0302719
X1177391Y0305912
X1177913Y0309233
X1134725Y0308725
X1134638Y0312086
X1135306Y0305413
X1136455Y0302253
X1138056Y0299297
X1138563Y0295973
Y0292611
Y0289248
Y0285886
Y0282524
Y0279162
X1138261Y0275813
X1136611Y0272883
X1135423Y0269738
X1134772Y026644
X1134614Y0263081
X1134994Y025974
X1135873Y0256495
X1137231Y0253419
X1139069Y0250605
X1141302Y0248091
X1143915Y0245975
X1146818Y0244278
X1149943Y0243038
X1153225Y0242307
X1156578Y0242067
X1159925Y0242392
X1163184Y0243217
X1166282Y0244525
X1169141Y0246294
X0990354Y0247736
X0987894Y0243799
X0983268Y0240157
X0985566Y0237008
X0980512Y0233366
X0978051Y0230512
X0975787Y0227854
X0973622Y0225
X0971161Y022185
X0968898Y0218557
X0962598Y0215846
X0964862Y0213189
X0960335Y0210532
X0957382Y0207579
X0955089Y0204429
X0952756Y0201476
X0950689Y0198524
X0948607Y0195362
X0943571Y0193307
X0945771Y0190453
X0937992Y0187402
X0939764Y0184055
X0993406Y0251378
X0997047Y0254528
X0999278Y0257972
X100167Y0261614
X1004429Y0264961
X1006669Y0269094
X1009055Y0272933
X1011713Y0275886
X1014272Y0279331
X1016437Y028248
X1018736Y0286097
X1020936Y0290157
X102344Y02935
X1025098Y0297441
X1027559Y0300591
X1030413Y0303937
X1032874Y0307579
X1034843Y0310532
X0934542Y0181398
X0936767Y0178543
X0932124Y0175295
X0929724Y0172638
X0924296Y016998
X0926767Y0166831
X0919158Y0163878
X0921491Y0161122
X0913583Y0157972
X0626181Y0257972
X0628336Y0261525
X0630512Y0265157
X0631102Y0269094
X0636417Y0272933
X0638681Y0275984
X0640846Y0279331
X0643028Y0282511
X0645228Y0286319
X0647441Y0290059
X065Y0293602
X0651378Y0297539
X065374Y0300591
X0656594Y0304035
X0660532Y0307677
X0658268Y031063
X0623001Y0254697
X0620624Y0251315
X0616318Y0247749
X061335Y024397
X0608563Y0240157
X0610925Y0237008
X060662Y0233483
X0603455Y023065
X059872Y0227953
X0601069Y0225094
X0597161Y022185
X0594783Y0218898
X0591101Y0213329
X0588484Y0215945
X0586417Y0210532
X0583465Y0207677
X058129Y0204429
X0578839Y0201575
X0576673Y0198524
X0574409Y0195571
X0569783Y0193307
X0572191Y0190498
X0567913Y01875
X0565453Y0184154
X0560103Y0181541
X0562402Y0178642
X0558247Y0175382
X055561Y0172539
X0550359Y016998
X055283Y0166732
X0545276Y0163976
X0547933Y0161024
X0539764Y0158071
X0165846Y0158169
X0168307Y0161122
X0170571Y0164173
X0172933Y0166634
X0175492Y0169882
X0178248Y0172638
X0180906Y0175238
X0183769Y0178616
X0186319Y0181299
X0188297Y0184261
X0190551Y0187205
X0193209Y0190551
X0195866Y0193146
X0198446Y0195677
X0200689Y0198425
X0203051Y020131
X020561Y0204331
X0207776Y0207776
X0210138Y021063
X0212465Y0213455
X021565Y0215945
X0217948Y0218859
X0220177Y0221949
X0222539Y0224902
X0225098Y0227854
X0228051Y0230684
X0230413Y0233661
X0232492Y0236823
X0234756Y0240255
X0237697Y0243996
X0239862Y0247813
X0242126Y025128
X024498Y0254823
X0248347Y0257874
X0250591Y0261417
X0252953Y0264862
X0255413Y0268701
X0257776Y0272638
X0260728Y0275886
X0263091Y0279035
X0265354Y0282283
X0267815Y0286319
X0270339Y0290159
X0272441Y0293701
X0274739Y0297377
X0277232Y0300628
X0279429Y0304134
X0282087Y0307382
X0284493Y0310684
X0149431Y0432283
X01401
X0130651
X0116408
X0110178
X009633
X0089474Y0431102
X008664Y0439144
X0082924Y0436944
X007973Y0434744
X0091447Y044144
X0093869Y0444291
X0096069Y0447244
X009853Y0450098
X0101375Y0452397
X0103575Y0455413
X0105813Y0458366
X0108569Y0460925
X0111226Y0463386
X0113687Y0465945
X0116408Y0468701
X0156664Y0432283
X0167294
X0180974
X0190162Y0432321
X0198593Y0432283
X0209322
X0216507
X0229893
X0239538
X0249317
X0259293
X0269332
X0278781
X0288534
X0297712
X030706
X0310925Y0348622
X0308563Y0345177
X0305964Y0342126
X0303248Y0338878
X0300689Y0335236
X0298425Y0331693
X0296161Y0328051
X0293898Y0324409
X0291535Y0320866
X0289173Y0317323
X028688Y0313946
X0313976Y0351673
X0316339Y0355413
X0320571Y0358957
X032372Y0362205
X0325458Y0366694
X0327756Y0370177
X0331131Y0375428
X033376Y0378381
X0337894Y0380448
X0328845Y0432283
X0319355
X0466105Y0387283
X0476225Y0387047
X0485559Y0387121
X0496321Y0387341
X0506389Y0386604
X0516511Y0381798
X0521221Y0380071
X0536137Y0381798
X0544523Y0378097
X0556459Y0381438
X0567517Y0384701
X0575652Y0384717
X058569Y0384205
X0597161Y038596
X06004Y03913
X0605591Y0381798
X0615271Y0382732
X0625341
X0634725
X0645586
X0655947
X0665396
X0675239Y0384228
X068535
X0695586Y0382732
X0707613Y0384214
X0715748Y0384228
X0710827Y0374213
X0708782Y0369057
X0706475Y0366115
X0703213Y0363915
X0699862Y0361715
X0696457Y0357283
X0693378Y0354887
X0688681Y0350787
X0691013Y0347915
X0687093Y0345325
X0684681Y034252
X0681594Y0339173
X067925Y0335236
X0676582Y0331796
X0673228Y0328051
X0668307Y0324311
X067063Y0320866
X0666621Y0317554
X0663338Y031401
X068063Y039143
X069626Y0440551
X0703346Y0447146
X0700681Y0450062
X0709139Y0455487
X0693898Y0458366
X0691796Y0461052
X0696752Y0466043
X0683754Y0468671
X0675984Y0463386
X0686284Y0452461
X070561Y0431791
X0714173Y0434252
X0711339Y0437106
X0720965Y0443799
X08285Y04102
X0840042Y0386549
X0850162Y0386992
X0859496Y0387066
X0870258Y0387286
X0880326Y0386549
X0889628Y0381743
X089797Y0380054
X0910074Y0381743
X091846Y0380054
X0930396Y0381383
X0940642Y0384646
X0949671Y0384662
X0959627Y038415
X0971098Y0385905
X0979528Y0381743
X0990192Y0382677
X0999278
X1008214Y038223
X1019523Y0382677
X1029884
X1039333
X1049176Y0384173
X1059287
X1069523Y0382677
X1080206Y0384159
X1089685Y0384173
X1086614Y0376181
X108378Y037227
X1080512Y0370177
X1077953Y0367028
X1072539Y0368602
X1074776Y036122
X1070472Y0357382
X106752Y0354921
X1066732Y0351575
X1064567Y0348622
X1060433Y0345177
X1058214Y0342323
X1055448Y0339075
X1053187Y0335138
X1050394Y0331693
X104685Y0327953
X1042421Y0324213
X1044685Y0320669
X1040453Y031752
X1037141Y0314075
X1135065Y0315421
X113599Y0318653
X1137391Y0321709
X1139289Y0324485
X1141574Y0326951
X1144217Y032903
X1147143Y0330686
X1150285Y0331882
X1153582Y0332543
X1158514Y0332609
X1161826Y0332033
X1164992Y03309
X1167956Y0329314
X117064Y0327289
X1172987Y0324882
X1174945Y0322148
X117642Y0319127
X1177434Y0315921
X1177927Y0312595
X1171709Y0488621
X1173866Y0491201
X1175613Y0494073
X1176904Y0497178
X1177713Y0500441
X117802Y0503789
X1177755Y0507141
X1176999Y0510417
X1175743Y0513536
X1174036Y0516432
Y0519794
Y0523157
Y0526519
Y0529881
Y0533243
Y0536605
X1174823Y0539874
X1176336Y0542877
X1177391Y0546069
X1177913Y0549391
X1177927Y0552753
X1177434Y0556079
X117642Y0559284
X1174945Y0562306
X1172988Y0565039
X117064Y0567446
X1167956Y0569472
X1164992Y0571058
X1161826Y0572191
X1158514Y0572767
X1153582Y05727
X1150285Y0572039
X1147143Y0570843
X1144217Y0569187
X1141574Y0567109
X1139289Y0564642
X1137391Y0561867
X113599Y0558811
X1135065Y0555578
X1134638Y0552243
X1134725Y0548882
X1135306Y0545571
X1136455Y0542411
X1138056Y0539454
X1138563Y053613
Y0532768
Y0529406
Y0526044
Y0522682
Y0519319
X1138261Y0515971
X1136611Y0513041
X1135423Y0509896
X1134773Y0506597
X1134615Y0503239
X1134994Y0499898
X1135873Y0496653
X1137231Y0493577
X1139069Y0490762
X1141302Y0488248
X1143915Y0486132
X1146818Y0484435
X1149943Y0483195
X1153225Y0482465
X1156579Y0482225
X1159925Y0482549
X1163184Y0483375
X1166282Y0484682
X1169141Y0486451
X1169141Y0619692
X1166282Y0617923
X1163184Y0616615
X1159925Y061579
X1156578Y0615465
X1153225Y0615705
X1149943Y0616436
X1146817Y0617676
X1143915Y0619373
X1141302Y0621489
X1139069Y0624003
X1171709Y0621862
X1173866Y0624441
X0626476Y0549409
X0636614Y0538287
X0630709Y0532283
X0633366Y0528642
X0625394Y0522146
X0640839Y0519783
X0643602Y0516437
X0646654Y0525394
X0650886Y0508366
X0653937Y0504823
X0656496Y051378
X0666634Y050187
X0660839Y0495669
X0663681Y0492028
X0656037Y0485705
X0670839Y0482874
X0673819Y0480118
X06768Y0489034
X0680883Y0471318
X0688617Y0477362
X0665881Y0474606
X0645768Y049872
X0635566Y051063
X0623327Y0540748
X0620768Y0543799
X0615748Y0535236
X061378Y0552657
X0610827Y0555315
X0616732Y0561319
X060315Y0564469
X0600787Y0567323
X0606594Y0572539
X0593898Y0575394
X0590846Y0578445
X0596555Y0584547
X0583661Y05875
X0581339Y0590157
X0586686Y0595915
X0573917Y0599016
X0571098Y0601969
X0578639Y0607874
X0564075Y0610728
X0560827Y0614469
X0555906Y0604823
X0566437Y0592913
X0576117Y058189
X0585827Y0569882
X0596098Y0558465
X0605217Y0546555
X0568639Y0621949
X0545764Y0618175
X0241738Y0618012
X0243904Y0621829
X0238797Y0614271
X0236533Y0610838
X0234455Y0607677
X0232093Y06047
X022914Y060187
X0226581Y0598917
X0224219Y0595964
X0221989Y0592875
X0219691Y058996
X0216507Y058747
X0214179Y0584646
X0211817Y0581791
X0209652Y0578346
X0207093Y0575325
X020473Y0572441
X0202487Y0569693
X0198593Y0567162
X019725Y0564567
X0194593Y056122
X0192338Y0558277
X01902Y0555315
X018781Y0552632
X0184947Y0549254
X0182289Y0546653
X0179534Y0543897
X0176974Y0540649
X0174612Y0538189
X0172348Y0535138
X0169355Y0532185
X0167435Y052874
X0164671Y0525454
X0162014Y0522244
X0158667Y0519882
X015664Y0516338
X0153549Y0513484
X0151089Y051063
X0147348Y0508268
X0144986Y0504823
X0142624Y0501772
X0140262Y0498523
X0138033Y0495596
X0135636Y0492126
X0133407Y0488976
X0131108Y0485827
X0129041Y0482775
X0126679Y048002
X0123825Y047746
X0121463Y0474409
X0119297Y0471457
X0246167Y0625295
X0249022Y0628838
X0252389Y063189
X0254632Y0635433
X0256994Y0638878
X0259455Y0642716
X0261817Y0646653
X026477Y0649901
X0267132Y0653051
X0269396Y0656299
X0271856Y0660335
X0274381Y0664174
X0276482Y0667716
X0278781Y0671393
X0281273Y0674644
X0283471Y0678149
X0286128Y0681397
X0288534Y06847
X0290921Y0687962
X0293215Y0691338
X0295577Y0694882
X0297939Y0698425
X0300203Y0702067
X0302467Y0705709
X030473Y0709252
X0307289Y0712894
X0310005Y0716142
X0312604Y0719193
X0314967Y0722638
X0318018Y0725689
X032038Y0729429
X0324612Y0732972
X0327762Y073622
X03295Y074071
X0331797Y0744193
X0335172Y0749444
X0337801Y0752397
X0341935Y0754597
X0346949Y0758071
X0465157
X0462303Y0754429
X045876Y0751644
X0455906Y0746619
X0449803Y0741831
X0449257Y073868
X0451673Y0734154
X0449803Y0728304
X0453445Y0724358
X0445866Y0721358
X0468504Y0721393
X0475984Y0716339
X0484646Y0724358
X048134Y0728304
X0486846Y0734138
X0496949Y0732087
X0493688Y0712998
X0490748Y0709154
X0487008Y0702264
X0500718Y0694906
X0504437Y0698353
X0506821Y070561
X0516634Y0691437
X0513397Y0684777
X0511046Y0681496
X0508886Y0674803
X0523917Y0671457
X0520866Y0667913
X0515551Y0660433
X0525984Y0649803
X0530807Y0652953
X0533957Y0656299
X0536811Y0664173
X0526673Y0678051
X0495768Y0688091
X0473181Y073878
X0470768Y0741831
X0479176Y0746691
X0546654Y0646752
X0543701Y0642618
X0540846Y0638976
X053622Y0635532
X05534Y06289
X0550787Y0625295
X0556704Y0632196
X0791732Y0775432
X0855512Y0772441
X0871555Y0755413
X0941354Y0766824
X0952568Y0779649
X0963074Y0759485
X0960728Y0755413
X0978066Y0768343
X1141574Y070035
X1144217Y0702428
X1147143Y0704084
X1150285Y070528
X1153582Y0705941
X1158514Y0706007
X1161826Y0705432
X1164991Y0704298
X1167956Y0702712
X117064Y0700687
X1172987Y069828
X1174945Y0695546
X117642Y0692525
X1177434Y0689319
X1177927Y0685993
X1177912Y0682631
X1177391Y067931
X1176336Y0676117
X1174823Y0673115
X1174035Y0669846
Y0666484
Y0663122
Y065976
Y0656397
Y0653035
Y0649673
X1175743Y0646777
X1176999Y0643658
X1177754Y0640382
X117802Y063703
X1177713Y0633682
X1176904Y0630418
X1175612Y0627314
X1137231Y0626818
X1135872Y0629893
X1134994Y0633139
X1134614Y0636479
X1134772Y0639838
X1135423Y0643137
X1136611Y0646282
X113826Y0649211
X1138563Y065256
Y0655922
Y0659284
Y0662647
Y0666009
Y0669371
X1138056Y0672695
X1136455Y0675651
X1135306Y0678811
X1134725Y0682123
X1134638Y0685484
X1135065Y0688819
X113599Y0692051
X1137391Y0695108
X1139289Y0697883
X1142397Y0785236
X1137795Y07936
X1093504Y08032
X1074683Y081
X0991437Y0800314
X097905Y0796296
Y0790391
X0950095Y0791277
X0948275Y079374
X0948314Y0803985
X0941846Y0814702
X0939276Y0818498
X0968125Y0813521
X0911319Y0787598
X0718735Y0803248
X0707941Y0803415
X0698397
X0688617
X0678283
X0668145Y0803642
X0658106Y0803415
X0648165Y0803642
X0638125Y0803415
X0627987Y0803642
X0618342
X0608106Y0803415
X0598397
X0588397Y0803642
X0578397
X0568539
X0558204
X0548165Y0803415
X0538716Y0803642
X0528937Y0803055
X0518145Y0803642
X0506821Y0803415
X0498558Y0803642
X0489503
X0478425
X0466338Y0803642
T02
X0971472Y0767261
X0992436Y0788816
X0972161Y0813521
X0962329
X095935Y0818737
X0934047Y0789702
T05
X0082598Y0021654
Y0031654
X0092598
X0102598
X0112598
X0122598
X0132598
X0142598
X0152598
Y0021654
X0142598
X0132598
X0122598
X0112598
X0102598
X0092598
Y0041709
Y0051709
X0102598
Y0041709
X0112598
Y0051709
X0122598
Y0041709
X0132598
Y0051709
X0142598
Y0041709
X0152598
Y0051709
X0082598
Y0041709
X0162598
Y0051709
X0172598
Y0041709
X0182598
Y0051709
X0192598
Y0041709
X0202598
Y0051709
X0212598
Y0041709
X0222598
Y0051709
X0232598
Y0041709
X0242598
Y0051709
X02525
X0252598Y0041709
X0262598
Y0051709
X0272598
Y0041709
X0282598
Y0051709
X0292598
Y0041709
X0302598
Y0051709
Y0031654
Y0021654
X0292598
Y0031654
X0282598
Y0021654
X0272598
Y0031654
X0262598
Y0021654
X0252598
X0242598
Y0031654
X02525
X0232598
Y0021654
X0222598
Y0031654
X0212598
Y0021654
X0202598
Y0031654
X0192598
Y0021654
X0182598
Y0031654
X0172598
Y0021654
X0162598
Y0031654
X0312598
X0322598
X0332598
Y0021654
X0322598
X0312598
Y0041709
Y0051709
X0322598
Y0041709
X0332598
Y0051709
X046063Y0051709
Y0041709
X046063Y0031709
Y0021709
X047063
X048063
X049063
X050063
X051063
X052063
X053063
X054063
X055063
X056063
X057063
X058063
X059063
X060063
X061063
X062063
Y0031709
X062063Y0041709
Y0051709
X061063
Y0041709
X060063
Y0051709
X059063
Y0041709
X058063
Y0051709
X057063
Y0041709
X056063
Y0051709
X055063
Y0041709
X054063
Y0051709
X053063
Y0041709
X052063
Y0051709
X051063
Y0041709
X050063
Y0051709
X049063
Y0041709
X048063
Y0051709
X047063
Y0041709
X047063Y0031709
X048063
X049063
X050063
X051063
X052063
X053063
X054063
X055063
X056063
X057063
X058063
X059063
X060063
X061063
X0630532
X063063Y0041709
X064063
X065063
X066063
X067063
X068063
X069063
X070063
X071063
Y0051709
X070063
X069063
X068063
X067063
X066063
X065063
X064063
X0630532
X064063Y0031709
X065063
X066063
X067063
X068063
X069063
X070063
X071063
Y0021709
X070063
X069063
X068063
X067063
X066063
X065063
X064063
X063063
X0834567Y0021654
Y0031653
Y0041653
X0844567
Y0051653
X0854567
Y0041653
X0864567
Y0051653
X0874567
Y0041653
X0884567
Y0051653
X0894567
Y0041653
X0904567
Y0051653
X0914567
Y0041653
X0924567
Y0051653
X0934567
Y0041653
Y0031653
Y0021654
X0924567
Y0031653
X0914567
Y0021654
X0904567
Y0031653
X0894567
Y0021654
X0884567
Y0031653
X0874567
Y0021654
X0864567
Y0031653
X0854567
Y0021654
X0844567
Y0031653
X0834567Y0051653
X0944567
Y0041653
X0954567
Y0051653
X0964567
Y0041653
X0974567
Y0051653
X0984567
Y0041653
X0994567
Y0051653
X1004469
X1004567Y0041653
X1014567
Y0051653
X1024567
Y0041653
X1034567
Y0051653
X1044567
Y0041653
X1054567
Y0051653
X1064567
Y0041653
X1074567
Y0051653
X1084567
Y0041653
Y0031653
Y0021654
X1074567
Y0031653
X1064567
Y0021654
X1054567
Y0031653
X1044567
Y0021654
X1034567
Y0031653
X1024567
Y0021654
X1014567
Y0031653
X1004469
X0994567
Y0021654
X1004567
X0984567
Y0031653
X0974567
Y0021654
X0964567
Y0031653
X0954567
Y0021654
X0944567
Y0031653
X014664Y0395724
X013664
X012664
X011664
X010664
X009664
Y0405724
X010664
X011664
X012664
X013664
X014664
X0146642Y0415724
Y0425724
X0136642
Y0415724
X0126642
Y0425724
X0116642
Y0415724
X0106642
Y0425724
X0096642
X0086642
Y0415724
X0096642
X008664Y0405724
Y0395724
X015664
Y0405724
X016664
Y0395724
X017664
Y0405724
X018664
Y0395724
X019664
Y0405724
X020664
Y0395724
X021664
Y0405724
X022664
Y0395724
X023664
Y0405724
X024664
X0256541
X025664Y0395724
X024664
X026664
Y0405724
X027664
Y0395724
X028664
Y0405724
X029664
Y0395724
X030664
Y0405724
X0306642Y0415724
Y0425724
X0296642
Y0415724
X0286642
Y0425724
X0276642
Y0415724
X0266642
Y0425724
X0256543
X0246642
Y0415724
X0256642
X0236642
Y0425724
X0226642
Y0415724
X0216642
Y0425724
X0206642
Y0415724
X0196642
Y0425724
X0186642
Y0415724
X0176642
Y0425724
X0166642
Y0415724
X0156642
Y0425724
X0316642
X0326642
X0336642
Y0415724
X0326642
X0316642
X031664Y0405724
Y0395724
X032664
Y0405724
X033664
Y0395724
X0460839Y0395724
Y0405724
X0460839Y0415779
Y0425779
X0470839
X0480839
X0490839
X0500839
X0510839
X0520839
X0530839
X0540839
X0550839
X0560839
X0570839
X0580839
X0590839
X0600839
X0610839
X0620839
Y0415779
X0610839
X0600839
X0590839
X0580839
X0570839
X0560839
X0550839
X0540839
X0530839
X0520839
X0510839
X0500839
X0490839
X0480839
X0470839
X0470839Y0405724
Y0395724
X0480839
Y0405724
X0490839
Y0395724
X0500839
Y0405724
X0510839
Y0395724
X0520839
Y0405724
X0530839
Y0395724
X0540839
Y0405724
X0550839
Y0395724
X0560839
Y0405724
X0570839
Y0395724
X0580839
Y0405724
X0590839
Y0395724
X0600839
Y0405724
X0610839
Y0395724
X0620839
Y0405724
X063074
X0630839Y0395724
X0640839
Y0405724
X0650839
Y0395724
X0660839
Y0405724
X0670839
Y0395724
X0680839
Y0405724
X0690839
Y0395724
X0700839
Y0405724
X0710839
Y0395724
X0710839Y0415779
Y0425779
X0700839
Y0415779
X0690839
Y0425779
X0680839
Y0415779
X0670839
Y0425779
X0660839
Y0415779
X0650839
Y0425779
X0640839
Y0415779
X0630839
X063074Y0425779
X0834067
Y0415779
X0834067Y040578
X0844067
X0844067Y0415779
X0854067
X0854067Y040578
Y039578
X0844067
X0834067
X0864067
Y040578
X0864067Y0415779
X0874067
X0874067Y040578
Y039578
X0884067
Y040578
X0884067Y0415779
X0894067
X0894067Y040578
Y039578
X0904067
Y040578
X0904067Y0415779
X0914067
X0914067Y040578
Y039578
X0924067
Y040578
X0924067Y0415779
X0934067
X0934067Y040578
Y039578
X0934067Y0425779
X0924067
X0914067
X0904067
X0894067
X0884067
X0874067
X0864067
X0854067
X0844067
X0944067
X0954067
X0964067
X0974067
X0984067
X0994067
X1003969
X1014067
X1024067
X1034067
X1044067
X1054067
X1064067
X1074067
X1084067
Y0415779
X1084067Y040578
X1074067
X1074067Y0415779
X1064067
X1064067Y040578
X1054067
X1054067Y0415779
X1044067
X1044067Y040578
X1034067
X1034067Y0415779
X1024067
X1024067Y040578
X1014067
X1014067Y0415779
X1004067
X0994067
X0994067Y040578
X1003969
X1004067Y039578
X0994067
X0984067
X0974067
X0964067
X0954067
X0944067
Y040578
X0944067Y0415779
X0954067
X0954067Y040578
X0964067
X0964067Y0415779
X0974067
X0974067Y040578
X0984067
X0984067Y0415779
X1014067Y039578
X1024067
X1034067
X1044067
X1054067
X1064067
X1074067
X1084067
X0933883Y0754351
X0946913Y0754351
X0989637Y075659
X1028575Y077023
X1042432
X1055118Y0770253
X1064272Y0836024
X1064272Y0847706
X1084252Y0824213
X1002658Y0827953
X1006693Y0846752
X0928543Y0833071
X0711587Y0830118
Y0840118
X0701587
Y0830118
X0691587
Y0840118
X0681587
Y0830118
X0671587
Y0840118
X0661587
Y0830118
X0651587
Y0840118
X0641587
Y0830118
X0631587
X0631488Y0840118
Y0820118
X0641587
X0651587
X0661587
X0671587
X0681587
X0691587
X0701587
X0711587
Y0810118
X0701587
X0691587
X0681587
X0671587
X0661587
X0651587
X0641587
X0631587
X0621587
Y0820118
Y0830118
Y0840118
X0611587
Y0830118
X0601587
Y0840118
X0591587
Y0830118
X0581587
Y0840118
X0571587
Y0830118
X0561587
Y0840118
X0551587
Y0830118
X0541587
Y0840118
X0531587
Y0830118
X0521587
Y0840118
X0511587
Y0830118
X0501587
Y0840118
X0491587
Y0830118
X0481587
Y0840118
X0471587
Y0830118
Y0820118
X0481587
X0491587
X0501587
X0511587
X0521587
X0531587
X0541587
X0551587
X0561587
X0571587
X0581587
X0591587
X0601587
X0611587
Y0810118
X0601587
X0591587
X0581587
X0571587
X0561587
X0551587
X0541587
X0531587
X0521587
X0511587
X0501587
X0491587
X0481587
X0471587
X0461587
Y0820118
Y0830118
Y0840118
T06
X0015256Y059065
Y0600492
X0011929Y0710728
X0021929
X017Y0770472
Y0780472
X018
X019
X02
X021
X022
Y0770472
X021
X02
X019
X018
X0304803Y0771654
X0314803
X0324803
X0334803
X0344803
X0354803
X0808976Y0800298
X0818976
X0828976
X0838976
X0848976
X0858976
Y0810298
X0848976
X0838976
X0828976
X0818976
X0808976
X0354803Y0781654
X0344803
X0334803
X0324803
X0314803
X0304803
T07
X1156299Y0122047
X1156299Y0169291
Y026378
Y0311024
X1156299Y0503937
X1156299Y0551181
X1156299Y0637178
Y0684422
T08
X1146299Y0112047
Y0132047
X1166299
Y0112047
X1166299Y0159291
Y0179291
X1146299
Y0159291
Y025378
Y027378
X1166299
Y025378
Y0301024
X1146299
Y0321024
X1166299
X1166299Y0493937
X1146299
Y0513937
X1166299
X1166299Y0541181
Y0561181
X1146299
Y0541181
X1146299Y0627178
Y0647178
X1166299
Y0627178
Y0674422
Y0694422
X1146299
Y0674422
T09
X0054724Y0802362
Y0820866
Y083937
X0106783
Y0820866
Y0802362
T10
X0019685Y0019685
X0062705Y0021654
X0352798Y0021709
X0399606Y0019685
X0440736Y0021709
X0730829Y0021764
X0781496Y0019685
X0814673Y0021654
X1104766Y0021709
X1161417Y0019685
X0052862Y0358957
X0066439Y0395779
X0019685Y0433071
X0356534Y0395724
X0367921Y0358957
X0430894Y0359012
X0440945Y0395724
X0399606Y0433071
X0731038Y0395779
X0745953Y0359012
X0804831Y0358957
X0814173Y039578
X0781496Y0433071
X1104266Y0395835
X111989Y0358957
X1161417Y0433071
X0051317Y0733028
X0366376
X0431103Y0733028
X0746162
X0804331Y0733083
X111939
X1161417Y0846457
X0781496
X0731786Y0810173
X0441693Y0810118
X0399606Y0846457
X0019685
T11
X0368209Y0822835
X0293209
X023248
X015748
M30
