G04*
G04 #@! TF.GenerationSoftware,Altium Limited,Altium Designer,20.2.6 (244)*
G04*
G04 Layer_Color=8388736*
%FSLAX25Y25*%
%MOIN*%
G70*
G04*
G04 #@! TF.SameCoordinates,78A2C6BB-1FC3-406C-8345-49C289C49674*
G04*
G04*
G04 #@! TF.FilePolarity,Negative*
G04*
G01*
G75*
%ADD11C,0.00787*%
%ADD15C,0.01000*%
%ADD22C,0.01500*%
%ADD23C,0.00100*%
%ADD40R,0.25197X0.07874*%
%ADD41R,0.04550X0.06518*%
%ADD42R,0.09668X0.13211*%
%ADD43C,0.09843*%
%ADD44R,0.06518X0.07306*%
%ADD45R,0.07306X0.07306*%
%ADD46R,0.02975X0.06715*%
%ADD47O,0.02581X0.07896*%
%ADD48O,0.07896X0.02581*%
%ADD49R,0.05337X0.04943*%
%ADD50R,0.03959X0.05731*%
%ADD51R,0.04943X0.05337*%
%ADD52R,0.07306X0.06518*%
%ADD53R,0.10849X0.08093*%
%ADD54R,0.13211X0.09668*%
%ADD55R,0.06518X0.04550*%
%ADD56R,0.04550X0.07699*%
%ADD57C,0.07306*%
%ADD58C,0.25022*%
%ADD59C,0.11243*%
%ADD60C,0.10849*%
%ADD61O,0.06321X0.05140*%
%ADD62O,0.04943X0.07699*%
%ADD63C,0.13211*%
%ADD64R,0.07400X0.07400*%
%ADD65C,0.07400*%
%ADD66C,0.03762*%
D11*
X818897Y856115D02*
G03*
X819685Y855328I787J0D01*
G01*
X843307D02*
G03*
X844094Y856115I0J787D01*
G01*
Y862414D02*
G03*
X843307Y863202I-787J-0D01*
G01*
X819685D02*
G03*
X818897Y862414I-0J-787D01*
G01*
X844094Y856115D02*
Y862414D01*
X818897Y856115D02*
Y862414D01*
X819685Y855328D02*
X843307D01*
X819685Y863202D02*
X843307D01*
D15*
X1181102Y846457D02*
G03*
X1161417Y866142I-19685J0D01*
G01*
Y0D02*
G03*
X1181102Y19685I0J19685D01*
G01*
X0D02*
G03*
X19685Y0I19685J0D01*
G01*
Y866142D02*
G03*
X0Y846457I0J-19685D01*
G01*
Y19685D02*
Y710236D01*
X1181102Y19685D02*
Y846457D01*
X19685Y866142D02*
X1161417D01*
X0Y710236D02*
Y846457D01*
X19685Y0D02*
X1161417D01*
X1250530Y492195D02*
Y486197D01*
X1254529D01*
X1257528Y490196D02*
X1259527D01*
X1260527Y489196D01*
Y486197D01*
X1257528D01*
X1256528Y487196D01*
X1257528Y488196D01*
X1260527D01*
X1262526Y490196D02*
Y487196D01*
X1263526Y486197D01*
X1266525D01*
Y485197D01*
X1265526Y484198D01*
X1264526D01*
X1266525Y486197D02*
Y490196D01*
X1271523Y486197D02*
X1269524D01*
X1268524Y487196D01*
Y489196D01*
X1269524Y490196D01*
X1271523D01*
X1272523Y489196D01*
Y488196D01*
X1268524D01*
X1274523Y490196D02*
Y486197D01*
Y488196D01*
X1275522Y489196D01*
X1276522Y490196D01*
X1277522D01*
X1253529Y378197D02*
Y384195D01*
X1250530Y381196D01*
X1254529D01*
X1250530Y407195D02*
X1251530Y408195D01*
X1253529D01*
X1254529Y407195D01*
Y406196D01*
X1253529Y405196D01*
X1252530D01*
X1253529D01*
X1254529Y404196D01*
Y403196D01*
X1253529Y402197D01*
X1251530D01*
X1250530Y403196D01*
X1254529Y426197D02*
X1250530D01*
X1254529Y430196D01*
Y431195D01*
X1253529Y432195D01*
X1251530D01*
X1250530Y431195D01*
Y450197D02*
X1252530D01*
X1251530D01*
Y456195D01*
X1250530Y455195D01*
X1291522Y486197D02*
Y492195D01*
X1295520Y486197D01*
Y492195D01*
X1298519Y490196D02*
X1300519D01*
X1301518Y489196D01*
Y486197D01*
X1298519D01*
X1297520Y487196D01*
X1298519Y488196D01*
X1301518D01*
X1303518Y486197D02*
Y490196D01*
X1304517D01*
X1305517Y489196D01*
Y486197D01*
Y489196D01*
X1306517Y490196D01*
X1307516Y489196D01*
Y486197D01*
X1312515D02*
X1310515D01*
X1309516Y487196D01*
Y489196D01*
X1310515Y490196D01*
X1312515D01*
X1313515Y489196D01*
Y488196D01*
X1309516D01*
X1291522Y360195D02*
Y354197D01*
X1294521D01*
X1295520Y355196D01*
Y356196D01*
X1294521Y357196D01*
X1291522D01*
X1294521D01*
X1295520Y358196D01*
Y359195D01*
X1294521Y360195D01*
X1291522D01*
X1298519Y354197D02*
X1300519D01*
X1301518Y355196D01*
Y357196D01*
X1300519Y358196D01*
X1298519D01*
X1297520Y357196D01*
Y355196D01*
X1298519Y354197D01*
X1304517Y359195D02*
Y358196D01*
X1303518D01*
X1305517D01*
X1304517D01*
Y355196D01*
X1305517Y354197D01*
X1309516Y359195D02*
Y358196D01*
X1308516D01*
X1310515D01*
X1309516D01*
Y355196D01*
X1310515Y354197D01*
X1314514D02*
X1316514D01*
X1317513Y355196D01*
Y357196D01*
X1316514Y358196D01*
X1314514D01*
X1313515Y357196D01*
Y355196D01*
X1314514Y354197D01*
X1319512D02*
Y358196D01*
X1320512D01*
X1321512Y357196D01*
Y354197D01*
Y357196D01*
X1322512Y358196D01*
X1323511Y357196D01*
Y354197D01*
X1334508Y360195D02*
X1332508D01*
X1331509Y359195D01*
Y355196D01*
X1332508Y354197D01*
X1334508D01*
X1335507Y355196D01*
Y359195D01*
X1334508Y360195D01*
X1337507Y358196D02*
X1339506Y354197D01*
X1341505Y358196D01*
X1346504Y354197D02*
X1344505D01*
X1343505Y355196D01*
Y357196D01*
X1344505Y358196D01*
X1346504D01*
X1347503Y357196D01*
Y356196D01*
X1343505D01*
X1349503Y358196D02*
Y354197D01*
Y356196D01*
X1350502Y357196D01*
X1351502Y358196D01*
X1352502D01*
X1355501Y354197D02*
X1357500D01*
X1356501D01*
Y360195D01*
X1355501D01*
X1361499Y358196D02*
X1363498D01*
X1364498Y357196D01*
Y354197D01*
X1361499D01*
X1360499Y355196D01*
X1361499Y356196D01*
X1364498D01*
X1366497Y358196D02*
Y355196D01*
X1367497Y354197D01*
X1370496D01*
Y353197D01*
X1369496Y352198D01*
X1368497D01*
X1370496Y354197D02*
Y358196D01*
X1291522Y372195D02*
Y366197D01*
X1294521D01*
X1295520Y367196D01*
Y368196D01*
X1294521Y369196D01*
X1291522D01*
X1294521D01*
X1295520Y370196D01*
Y371195D01*
X1294521Y372195D01*
X1291522D01*
X1298519Y366197D02*
X1300519D01*
X1301518Y367196D01*
Y369196D01*
X1300519Y370196D01*
X1298519D01*
X1297520Y369196D01*
Y367196D01*
X1298519Y366197D01*
X1304517Y371195D02*
Y370196D01*
X1303518D01*
X1305517D01*
X1304517D01*
Y367196D01*
X1305517Y366197D01*
X1309516Y371195D02*
Y370196D01*
X1308516D01*
X1310515D01*
X1309516D01*
Y367196D01*
X1310515Y366197D01*
X1314514D02*
X1316514D01*
X1317513Y367196D01*
Y369196D01*
X1316514Y370196D01*
X1314514D01*
X1313515Y369196D01*
Y367196D01*
X1314514Y366197D01*
X1319512D02*
Y370196D01*
X1320512D01*
X1321512Y369196D01*
Y366197D01*
Y369196D01*
X1322512Y370196D01*
X1323511Y369196D01*
Y366197D01*
X1335507Y371195D02*
X1334508Y372195D01*
X1332508D01*
X1331509Y371195D01*
Y370196D01*
X1332508Y369196D01*
X1334508D01*
X1335507Y368196D01*
Y367196D01*
X1334508Y366197D01*
X1332508D01*
X1331509Y367196D01*
X1338506Y366197D02*
X1340506D01*
X1341505Y367196D01*
Y369196D01*
X1340506Y370196D01*
X1338506D01*
X1337507Y369196D01*
Y367196D01*
X1338506Y366197D01*
X1343505D02*
X1345504D01*
X1344505D01*
Y372195D01*
X1343505D01*
X1352502D02*
Y366197D01*
X1349503D01*
X1348503Y367196D01*
Y369196D01*
X1349503Y370196D01*
X1352502D01*
X1357500Y366197D02*
X1355501D01*
X1354501Y367196D01*
Y369196D01*
X1355501Y370196D01*
X1357500D01*
X1358500Y369196D01*
Y368196D01*
X1354501D01*
X1360499Y370196D02*
Y366197D01*
Y368196D01*
X1361499Y369196D01*
X1362499Y370196D01*
X1363498D01*
X1291522Y384195D02*
Y378197D01*
X1294521D01*
X1295520Y379197D01*
Y380196D01*
X1294521Y381196D01*
X1291522D01*
X1294521D01*
X1295520Y382196D01*
Y383195D01*
X1294521Y384195D01*
X1291522D01*
X1298519Y378197D02*
X1300519D01*
X1301518Y379197D01*
Y381196D01*
X1300519Y382196D01*
X1298519D01*
X1297520Y381196D01*
Y379197D01*
X1298519Y378197D01*
X1304517Y383195D02*
Y382196D01*
X1303518D01*
X1305517D01*
X1304517D01*
Y379197D01*
X1305517Y378197D01*
X1309516Y383195D02*
Y382196D01*
X1308516D01*
X1310515D01*
X1309516D01*
Y379197D01*
X1310515Y378197D01*
X1314514D02*
X1316514D01*
X1317513Y379197D01*
Y381196D01*
X1316514Y382196D01*
X1314514D01*
X1313515Y381196D01*
Y379197D01*
X1314514Y378197D01*
X1319512D02*
Y382196D01*
X1320512D01*
X1321512Y381196D01*
Y378197D01*
Y381196D01*
X1322512Y382196D01*
X1323511Y381196D01*
Y378197D01*
X1331509Y384195D02*
Y378197D01*
X1335507D01*
X1338506Y382196D02*
X1340506D01*
X1341505Y381196D01*
Y378197D01*
X1338506D01*
X1337507Y379197D01*
X1338506Y380196D01*
X1341505D01*
X1343505Y382196D02*
Y379197D01*
X1344505Y378197D01*
X1347503D01*
Y377197D01*
X1346504Y376198D01*
X1345504D01*
X1347503Y378197D02*
Y382196D01*
X1352502Y378197D02*
X1350502D01*
X1349503Y379197D01*
Y381196D01*
X1350502Y382196D01*
X1352502D01*
X1353502Y381196D01*
Y380196D01*
X1349503D01*
X1355501Y382196D02*
Y378197D01*
Y380196D01*
X1356501Y381196D01*
X1357500Y382196D01*
X1358500D01*
X1291522Y396195D02*
Y390197D01*
X1294521D01*
X1295520Y391196D01*
Y395195D01*
X1294521Y396195D01*
X1291522D01*
X1297520Y390197D02*
X1299519D01*
X1298519D01*
Y394196D01*
X1297520D01*
X1305517Y390197D02*
X1303518D01*
X1302518Y391196D01*
Y393196D01*
X1303518Y394196D01*
X1305517D01*
X1306517Y393196D01*
Y392196D01*
X1302518D01*
X1308516Y390197D02*
X1310515D01*
X1309516D01*
Y396195D01*
X1308516D01*
X1316514Y390197D02*
X1314514D01*
X1313515Y391196D01*
Y393196D01*
X1314514Y394196D01*
X1316514D01*
X1317513Y393196D01*
Y392196D01*
X1313515D01*
X1323511Y394196D02*
X1320512D01*
X1319512Y393196D01*
Y391196D01*
X1320512Y390197D01*
X1323511D01*
X1326510Y395195D02*
Y394196D01*
X1325511D01*
X1327510D01*
X1326510D01*
Y391196D01*
X1327510Y390197D01*
X1330509Y394196D02*
Y390197D01*
Y392196D01*
X1331509Y393196D01*
X1332508Y394196D01*
X1333508D01*
X1336507Y390197D02*
X1338506D01*
X1337507D01*
Y394196D01*
X1336507D01*
X1345504D02*
X1342505D01*
X1341505Y393196D01*
Y391196D01*
X1342505Y390197D01*
X1345504D01*
X1353502Y395195D02*
X1354501Y396195D01*
X1356501D01*
X1357500Y395195D01*
Y394196D01*
X1356501Y393196D01*
X1355501D01*
X1356501D01*
X1357500Y392196D01*
Y391196D01*
X1356501Y390197D01*
X1354501D01*
X1353502Y391196D01*
X1295520Y407195D02*
X1294521Y408195D01*
X1292521D01*
X1291522Y407195D01*
Y406196D01*
X1292521Y405196D01*
X1294521D01*
X1295520Y404196D01*
Y403196D01*
X1294521Y402197D01*
X1292521D01*
X1291522Y403196D01*
X1297520Y402197D02*
X1299519D01*
X1298519D01*
Y406196D01*
X1297520D01*
X1304517Y400198D02*
X1305517D01*
X1306517Y401197D01*
Y406196D01*
X1303518D01*
X1302518Y405196D01*
Y403196D01*
X1303518Y402197D01*
X1306517D01*
X1308516D02*
Y406196D01*
X1311515D01*
X1312515Y405196D01*
Y402197D01*
X1315514Y406196D02*
X1317513D01*
X1318513Y405196D01*
Y402197D01*
X1315514D01*
X1314514Y403196D01*
X1315514Y404196D01*
X1318513D01*
X1320512Y402197D02*
X1322512D01*
X1321512D01*
Y408195D01*
X1320512D01*
X1331509D02*
Y402197D01*
X1335507D01*
X1338506Y406196D02*
X1340506D01*
X1341505Y405196D01*
Y402197D01*
X1338506D01*
X1337507Y403196D01*
X1338506Y404196D01*
X1341505D01*
X1343505Y406196D02*
Y403196D01*
X1344505Y402197D01*
X1347503D01*
Y401197D01*
X1346504Y400198D01*
X1345504D01*
X1347503Y402197D02*
Y406196D01*
X1352502Y402197D02*
X1350502D01*
X1349503Y403196D01*
Y405196D01*
X1350502Y406196D01*
X1352502D01*
X1353502Y405196D01*
Y404196D01*
X1349503D01*
X1355501Y406196D02*
Y402197D01*
Y404196D01*
X1356501Y405196D01*
X1357500Y406196D01*
X1358500D01*
X1371496Y402197D02*
X1367497D01*
X1371496Y406196D01*
Y407195D01*
X1370496Y408195D01*
X1368497D01*
X1367497Y407195D01*
X1291522Y420195D02*
Y414197D01*
X1294521D01*
X1295520Y415197D01*
Y419195D01*
X1294521Y420195D01*
X1291522D01*
X1297520Y414197D02*
X1299519D01*
X1298519D01*
Y418196D01*
X1297520D01*
X1305517Y414197D02*
X1303518D01*
X1302518Y415197D01*
Y417196D01*
X1303518Y418196D01*
X1305517D01*
X1306517Y417196D01*
Y416196D01*
X1302518D01*
X1308516Y414197D02*
X1310515D01*
X1309516D01*
Y420195D01*
X1308516D01*
X1316514Y414197D02*
X1314514D01*
X1313515Y415197D01*
Y417196D01*
X1314514Y418196D01*
X1316514D01*
X1317513Y417196D01*
Y416196D01*
X1313515D01*
X1323511Y418196D02*
X1320512D01*
X1319512Y417196D01*
Y415197D01*
X1320512Y414197D01*
X1323511D01*
X1326510Y419195D02*
Y418196D01*
X1325511D01*
X1327510D01*
X1326510D01*
Y415197D01*
X1327510Y414197D01*
X1330509Y418196D02*
Y414197D01*
Y416196D01*
X1331509Y417196D01*
X1332508Y418196D01*
X1333508D01*
X1336507Y414197D02*
X1338506D01*
X1337507D01*
Y418196D01*
X1336507D01*
X1345504D02*
X1342505D01*
X1341505Y417196D01*
Y415197D01*
X1342505Y414197D01*
X1345504D01*
X1357500D02*
X1353502D01*
X1357500Y418196D01*
Y419195D01*
X1356501Y420195D01*
X1354501D01*
X1353502Y419195D01*
X1295520Y431195D02*
X1294521Y432195D01*
X1292521D01*
X1291522Y431195D01*
Y430196D01*
X1292521Y429196D01*
X1294521D01*
X1295520Y428196D01*
Y427197D01*
X1294521Y426197D01*
X1292521D01*
X1291522Y427197D01*
X1297520Y426197D02*
X1299519D01*
X1298519D01*
Y430196D01*
X1297520D01*
X1304517Y424197D02*
X1305517D01*
X1306517Y425197D01*
Y430196D01*
X1303518D01*
X1302518Y429196D01*
Y427197D01*
X1303518Y426197D01*
X1306517D01*
X1308516D02*
Y430196D01*
X1311515D01*
X1312515Y429196D01*
Y426197D01*
X1315514Y430196D02*
X1317513D01*
X1318513Y429196D01*
Y426197D01*
X1315514D01*
X1314514Y427197D01*
X1315514Y428196D01*
X1318513D01*
X1320512Y426197D02*
X1322512D01*
X1321512D01*
Y432195D01*
X1320512D01*
X1331509D02*
Y426197D01*
X1335507D01*
X1338506Y430196D02*
X1340506D01*
X1341505Y429196D01*
Y426197D01*
X1338506D01*
X1337507Y427197D01*
X1338506Y428196D01*
X1341505D01*
X1343505Y430196D02*
Y427197D01*
X1344505Y426197D01*
X1347503D01*
Y425197D01*
X1346504Y424197D01*
X1345504D01*
X1347503Y426197D02*
Y430196D01*
X1352502Y426197D02*
X1350502D01*
X1349503Y427197D01*
Y429196D01*
X1350502Y430196D01*
X1352502D01*
X1353502Y429196D01*
Y428196D01*
X1349503D01*
X1355501Y430196D02*
Y426197D01*
Y428196D01*
X1356501Y429196D01*
X1357500Y430196D01*
X1358500D01*
X1367497Y426197D02*
X1369496D01*
X1368497D01*
Y432195D01*
X1367497Y431195D01*
X1291522Y444195D02*
Y438197D01*
X1294521D01*
X1295520Y439196D01*
Y443195D01*
X1294521Y444195D01*
X1291522D01*
X1297520Y438197D02*
X1299519D01*
X1298519D01*
Y442196D01*
X1297520D01*
X1305517Y438197D02*
X1303518D01*
X1302518Y439196D01*
Y441196D01*
X1303518Y442196D01*
X1305517D01*
X1306517Y441196D01*
Y440196D01*
X1302518D01*
X1308516Y438197D02*
X1310515D01*
X1309516D01*
Y444195D01*
X1308516D01*
X1316514Y438197D02*
X1314514D01*
X1313515Y439196D01*
Y441196D01*
X1314514Y442196D01*
X1316514D01*
X1317513Y441196D01*
Y440196D01*
X1313515D01*
X1323511Y442196D02*
X1320512D01*
X1319512Y441196D01*
Y439196D01*
X1320512Y438197D01*
X1323511D01*
X1326510Y443195D02*
Y442196D01*
X1325511D01*
X1327510D01*
X1326510D01*
Y439196D01*
X1327510Y438197D01*
X1330509Y442196D02*
Y438197D01*
Y440196D01*
X1331509Y441196D01*
X1332508Y442196D01*
X1333508D01*
X1336507Y438197D02*
X1338506D01*
X1337507D01*
Y442196D01*
X1336507D01*
X1345504D02*
X1342505D01*
X1341505Y441196D01*
Y439196D01*
X1342505Y438197D01*
X1345504D01*
X1353502D02*
X1355501D01*
X1354501D01*
Y444195D01*
X1353502Y443195D01*
X1291522Y456195D02*
X1295520D01*
X1293521D01*
Y450197D01*
X1298519D02*
X1300519D01*
X1301518Y451196D01*
Y453196D01*
X1300519Y454196D01*
X1298519D01*
X1297520Y453196D01*
Y451196D01*
X1298519Y450197D01*
X1303518Y448198D02*
Y454196D01*
X1306517D01*
X1307516Y453196D01*
Y451196D01*
X1306517Y450197D01*
X1303518D01*
X1315514Y456195D02*
Y450197D01*
X1319513D01*
X1322512Y454196D02*
X1324511D01*
X1325511Y453196D01*
Y450197D01*
X1322512D01*
X1321512Y451196D01*
X1322512Y452196D01*
X1325511D01*
X1327510Y454196D02*
Y451196D01*
X1328510Y450197D01*
X1331509D01*
Y449197D01*
X1330509Y448198D01*
X1329509D01*
X1331509Y450197D02*
Y454196D01*
X1336507Y450197D02*
X1334508D01*
X1333508Y451196D01*
Y453196D01*
X1334508Y454196D01*
X1336507D01*
X1337507Y453196D01*
Y452196D01*
X1333508D01*
X1339506Y454196D02*
Y450197D01*
Y452196D01*
X1340506Y453196D01*
X1341505Y454196D01*
X1342505D01*
X1291522Y468195D02*
X1295520D01*
X1293521D01*
Y462197D01*
X1298519D02*
X1300519D01*
X1301518Y463197D01*
Y465196D01*
X1300519Y466196D01*
X1298519D01*
X1297520Y465196D01*
Y463197D01*
X1298519Y462197D01*
X1303518Y460197D02*
Y466196D01*
X1306517D01*
X1307516Y465196D01*
Y463197D01*
X1306517Y462197D01*
X1303518D01*
X1319513Y467195D02*
X1318513Y468195D01*
X1316514D01*
X1315514Y467195D01*
Y466196D01*
X1316514Y465196D01*
X1318513D01*
X1319513Y464196D01*
Y463197D01*
X1318513Y462197D01*
X1316514D01*
X1315514Y463197D01*
X1322512Y462197D02*
X1324511D01*
X1325511Y463197D01*
Y465196D01*
X1324511Y466196D01*
X1322512D01*
X1321512Y465196D01*
Y463197D01*
X1322512Y462197D01*
X1327510D02*
X1329509D01*
X1328510D01*
Y468195D01*
X1327510D01*
X1336507D02*
Y462197D01*
X1333508D01*
X1332508Y463197D01*
Y465196D01*
X1333508Y466196D01*
X1336507D01*
X1341505Y462197D02*
X1339506D01*
X1338506Y463197D01*
Y465196D01*
X1339506Y466196D01*
X1341505D01*
X1342505Y465196D01*
Y464196D01*
X1338506D01*
X1344505Y466196D02*
Y462197D01*
Y464196D01*
X1345504Y465196D01*
X1346504Y466196D01*
X1347503D01*
X1291522Y480195D02*
X1295520D01*
X1293521D01*
Y474197D01*
X1298519D02*
X1300519D01*
X1301518Y475197D01*
Y477196D01*
X1300519Y478196D01*
X1298519D01*
X1297520Y477196D01*
Y475197D01*
X1298519Y474197D01*
X1303518Y472197D02*
Y478196D01*
X1306517D01*
X1307516Y477196D01*
Y475197D01*
X1306517Y474197D01*
X1303518D01*
X1318513Y480195D02*
X1316514D01*
X1315514Y479195D01*
Y475197D01*
X1316514Y474197D01*
X1318513D01*
X1319513Y475197D01*
Y479195D01*
X1318513Y480195D01*
X1321512Y478196D02*
X1323511Y474197D01*
X1325511Y478196D01*
X1330509Y474197D02*
X1328510D01*
X1327510Y475197D01*
Y477196D01*
X1328510Y478196D01*
X1330509D01*
X1331509Y477196D01*
Y476196D01*
X1327510D01*
X1333508Y478196D02*
Y474197D01*
Y476196D01*
X1334508Y477196D01*
X1335507Y478196D01*
X1336507D01*
X1339506Y474197D02*
X1341505D01*
X1340506D01*
Y480195D01*
X1339506D01*
X1345504Y478196D02*
X1347503D01*
X1348503Y477196D01*
Y474197D01*
X1345504D01*
X1344505Y475197D01*
X1345504Y476196D01*
X1348503D01*
X1350502Y478196D02*
Y475197D01*
X1351502Y474197D01*
X1354501D01*
Y473197D01*
X1353502Y472197D01*
X1352502D01*
X1354501Y474197D02*
Y478196D01*
X1385496Y486197D02*
Y492195D01*
X1387495Y490196D01*
X1389494Y492195D01*
Y486197D01*
X1392494Y490196D02*
X1394493D01*
X1395492Y489196D01*
Y486197D01*
X1392494D01*
X1391494Y487196D01*
X1392494Y488196D01*
X1395492D01*
X1398491Y491195D02*
Y490196D01*
X1397492D01*
X1399491D01*
X1398491D01*
Y487196D01*
X1399491Y486197D01*
X1405489D02*
X1403490D01*
X1402490Y487196D01*
Y489196D01*
X1403490Y490196D01*
X1405489D01*
X1406489Y489196D01*
Y488196D01*
X1402490D01*
X1408488Y490196D02*
Y486197D01*
Y488196D01*
X1409488Y489196D01*
X1410488Y490196D01*
X1411487D01*
X1414486Y486197D02*
X1416486D01*
X1415486D01*
Y490196D01*
X1414486D01*
X1420484D02*
X1422484D01*
X1423483Y489196D01*
Y486197D01*
X1420484D01*
X1419485Y487196D01*
X1420484Y488196D01*
X1423483D01*
X1425483Y486197D02*
X1427482D01*
X1426482D01*
Y492195D01*
X1425483D01*
X1389494Y371195D02*
X1388495Y372195D01*
X1386495D01*
X1385496Y371195D01*
Y370196D01*
X1386495Y369196D01*
X1388495D01*
X1389494Y368196D01*
Y367196D01*
X1388495Y366197D01*
X1386495D01*
X1385496Y367196D01*
X1392494Y366197D02*
X1394493D01*
X1395492Y367196D01*
Y369196D01*
X1394493Y370196D01*
X1392494D01*
X1391494Y369196D01*
Y367196D01*
X1392494Y366197D01*
X1397492D02*
X1399491D01*
X1398491D01*
Y372195D01*
X1397492D01*
X1406489D02*
Y366197D01*
X1403490D01*
X1402490Y367196D01*
Y369196D01*
X1403490Y370196D01*
X1406489D01*
X1411487Y366197D02*
X1409488D01*
X1408488Y367196D01*
Y369196D01*
X1409488Y370196D01*
X1411487D01*
X1412487Y369196D01*
Y368196D01*
X1408488D01*
X1414486Y370196D02*
Y366197D01*
Y368196D01*
X1415486Y369196D01*
X1416486Y370196D01*
X1417485D01*
X1426482Y366197D02*
Y372195D01*
X1429482D01*
X1430481Y371195D01*
Y369196D01*
X1429482Y368196D01*
X1426482D01*
X1428482D02*
X1430481Y366197D01*
X1435480D02*
X1433480D01*
X1432481Y367196D01*
Y369196D01*
X1433480Y370196D01*
X1435480D01*
X1436479Y369196D01*
Y368196D01*
X1432481D01*
X1438479Y366197D02*
X1441478D01*
X1442477Y367196D01*
X1441478Y368196D01*
X1439478D01*
X1438479Y369196D01*
X1439478Y370196D01*
X1442477D01*
X1444477Y366197D02*
X1446476D01*
X1445476D01*
Y370196D01*
X1444477D01*
X1449475Y366197D02*
X1452474D01*
X1453474Y367196D01*
X1452474Y368196D01*
X1450475D01*
X1449475Y369196D01*
X1450475Y370196D01*
X1453474D01*
X1456473Y371195D02*
Y370196D01*
X1455473D01*
X1457472D01*
X1456473D01*
Y367196D01*
X1457472Y366197D01*
X1389494Y383195D02*
X1388495Y384195D01*
X1386495D01*
X1385496Y383195D01*
Y379197D01*
X1386495Y378197D01*
X1388495D01*
X1389494Y379197D01*
X1392494Y378197D02*
X1394493D01*
X1395492Y379197D01*
Y381196D01*
X1394493Y382196D01*
X1392494D01*
X1391494Y381196D01*
Y379197D01*
X1392494Y378197D01*
X1397492Y376198D02*
Y382196D01*
X1400491D01*
X1401491Y381196D01*
Y379197D01*
X1400491Y378197D01*
X1397492D01*
X1403490Y376198D02*
Y382196D01*
X1406489D01*
X1407489Y381196D01*
Y379197D01*
X1406489Y378197D01*
X1403490D01*
X1412487D02*
X1410488D01*
X1409488Y379197D01*
Y381196D01*
X1410488Y382196D01*
X1412487D01*
X1413487Y381196D01*
Y380196D01*
X1409488D01*
X1415486Y382196D02*
Y378197D01*
Y380196D01*
X1416486Y381196D01*
X1417485Y382196D01*
X1418485D01*
X1389494Y396195D02*
X1385496D01*
Y393196D01*
X1387495D01*
X1385496D01*
Y390197D01*
X1391494D02*
Y396195D01*
X1394493D01*
X1395492Y395195D01*
Y393196D01*
X1394493Y392196D01*
X1391494D01*
X1393493D02*
X1395492Y390197D01*
X1397492Y393196D02*
X1401491D01*
X1406489Y390197D02*
Y396195D01*
X1403490Y393196D01*
X1407489D01*
X1389494Y407195D02*
X1388495Y408195D01*
X1386495D01*
X1385496Y407195D01*
Y403196D01*
X1386495Y402197D01*
X1388495D01*
X1389494Y403196D01*
X1392494Y402197D02*
X1394493D01*
X1395492Y403196D01*
Y405196D01*
X1394493Y406196D01*
X1392494D01*
X1391494Y405196D01*
Y403196D01*
X1392494Y402197D01*
X1397492Y400198D02*
Y406196D01*
X1400491D01*
X1401491Y405196D01*
Y403196D01*
X1400491Y402197D01*
X1397492D01*
X1403490Y400198D02*
Y406196D01*
X1406489D01*
X1407489Y405196D01*
Y403196D01*
X1406489Y402197D01*
X1403490D01*
X1412487D02*
X1410488D01*
X1409488Y403196D01*
Y405196D01*
X1410488Y406196D01*
X1412487D01*
X1413487Y405196D01*
Y404196D01*
X1409488D01*
X1415486Y406196D02*
Y402197D01*
Y404196D01*
X1416486Y405196D01*
X1417485Y406196D01*
X1418485D01*
X1389494Y420195D02*
X1385496D01*
Y417196D01*
X1387495D01*
X1385496D01*
Y414197D01*
X1391494D02*
Y420195D01*
X1394493D01*
X1395492Y419195D01*
Y417196D01*
X1394493Y416196D01*
X1391494D01*
X1393493D02*
X1395492Y414197D01*
X1397492Y417196D02*
X1401491D01*
X1406489Y414197D02*
Y420195D01*
X1403490Y417196D01*
X1407489D01*
X1389494Y431195D02*
X1388495Y432195D01*
X1386495D01*
X1385496Y431195D01*
Y427197D01*
X1386495Y426197D01*
X1388495D01*
X1389494Y427197D01*
X1392494Y426197D02*
X1394493D01*
X1395492Y427197D01*
Y429196D01*
X1394493Y430196D01*
X1392494D01*
X1391494Y429196D01*
Y427197D01*
X1392494Y426197D01*
X1397492Y424197D02*
Y430196D01*
X1400491D01*
X1401491Y429196D01*
Y427197D01*
X1400491Y426197D01*
X1397492D01*
X1403490Y424197D02*
Y430196D01*
X1406489D01*
X1407489Y429196D01*
Y427197D01*
X1406489Y426197D01*
X1403490D01*
X1412487D02*
X1410488D01*
X1409488Y427197D01*
Y429196D01*
X1410488Y430196D01*
X1412487D01*
X1413487Y429196D01*
Y428196D01*
X1409488D01*
X1415486Y430196D02*
Y426197D01*
Y428196D01*
X1416486Y429196D01*
X1417485Y430196D01*
X1418485D01*
X1389494Y444195D02*
X1385496D01*
Y441196D01*
X1387495D01*
X1385496D01*
Y438197D01*
X1391494D02*
Y444195D01*
X1394493D01*
X1395492Y443195D01*
Y441196D01*
X1394493Y440196D01*
X1391494D01*
X1393493D02*
X1395492Y438197D01*
X1397492Y441196D02*
X1401491D01*
X1406489Y438197D02*
Y444195D01*
X1403490Y441196D01*
X1407489D01*
X1389494Y455195D02*
X1388495Y456195D01*
X1386495D01*
X1385496Y455195D01*
Y451196D01*
X1386495Y450197D01*
X1388495D01*
X1389494Y451196D01*
X1392494Y450197D02*
X1394493D01*
X1395492Y451196D01*
Y453196D01*
X1394493Y454196D01*
X1392494D01*
X1391494Y453196D01*
Y451196D01*
X1392494Y450197D01*
X1397492Y448198D02*
Y454196D01*
X1400491D01*
X1401491Y453196D01*
Y451196D01*
X1400491Y450197D01*
X1397492D01*
X1403490Y448198D02*
Y454196D01*
X1406489D01*
X1407489Y453196D01*
Y451196D01*
X1406489Y450197D01*
X1403490D01*
X1412487D02*
X1410488D01*
X1409488Y451196D01*
Y453196D01*
X1410488Y454196D01*
X1412487D01*
X1413487Y453196D01*
Y452196D01*
X1409488D01*
X1415486Y454196D02*
Y450197D01*
Y452196D01*
X1416486Y453196D01*
X1417485Y454196D01*
X1418485D01*
X1389494Y467195D02*
X1388495Y468195D01*
X1386495D01*
X1385496Y467195D01*
Y466196D01*
X1386495Y465196D01*
X1388495D01*
X1389494Y464196D01*
Y463197D01*
X1388495Y462197D01*
X1386495D01*
X1385496Y463197D01*
X1392494Y462197D02*
X1394493D01*
X1395492Y463197D01*
Y465196D01*
X1394493Y466196D01*
X1392494D01*
X1391494Y465196D01*
Y463197D01*
X1392494Y462197D01*
X1397492D02*
X1399491D01*
X1398491D01*
Y468195D01*
X1397492D01*
X1406489D02*
Y462197D01*
X1403490D01*
X1402490Y463197D01*
Y465196D01*
X1403490Y466196D01*
X1406489D01*
X1411487Y462197D02*
X1409488D01*
X1408488Y463197D01*
Y465196D01*
X1409488Y466196D01*
X1411487D01*
X1412487Y465196D01*
Y464196D01*
X1408488D01*
X1414486Y466196D02*
Y462197D01*
Y464196D01*
X1415486Y465196D01*
X1416486Y466196D01*
X1417485D01*
X1426482Y462197D02*
Y468195D01*
X1429482D01*
X1430481Y467195D01*
Y465196D01*
X1429482Y464196D01*
X1426482D01*
X1428482D02*
X1430481Y462197D01*
X1435480D02*
X1433480D01*
X1432481Y463197D01*
Y465196D01*
X1433480Y466196D01*
X1435480D01*
X1436479Y465196D01*
Y464196D01*
X1432481D01*
X1438479Y462197D02*
X1441478D01*
X1442477Y463197D01*
X1441478Y464196D01*
X1439478D01*
X1438479Y465196D01*
X1439478Y466196D01*
X1442477D01*
X1444477Y462197D02*
X1446476D01*
X1445476D01*
Y466196D01*
X1444477D01*
X1449475Y462197D02*
X1452474D01*
X1453474Y463197D01*
X1452474Y464196D01*
X1450475D01*
X1449475Y465196D01*
X1450475Y466196D01*
X1453474D01*
X1456473Y467195D02*
Y466196D01*
X1455473D01*
X1457472D01*
X1456473D01*
Y463197D01*
X1457472Y462197D01*
X1471472Y492195D02*
X1475471D01*
X1473472D01*
Y486197D01*
X1477470Y492195D02*
Y486197D01*
Y489196D01*
X1478470Y490196D01*
X1480470D01*
X1481469Y489196D01*
Y486197D01*
X1483469D02*
X1485468D01*
X1484468D01*
Y490196D01*
X1483469D01*
X1492466D02*
X1489467D01*
X1488467Y489196D01*
Y487196D01*
X1489467Y486197D01*
X1492466D01*
X1494465D02*
Y492195D01*
Y488196D02*
X1497464Y490196D01*
X1494465Y488196D02*
X1497464Y486197D01*
X1500463D02*
Y490196D01*
X1503462D01*
X1504462Y489196D01*
Y486197D01*
X1509460D02*
X1507461D01*
X1506461Y487196D01*
Y489196D01*
X1507461Y490196D01*
X1509460D01*
X1510460Y489196D01*
Y488196D01*
X1506461D01*
X1512459Y486197D02*
X1515458D01*
X1516458Y487196D01*
X1515458Y488196D01*
X1513459D01*
X1512459Y489196D01*
X1513459Y490196D01*
X1516458D01*
X1518457Y486197D02*
X1521456D01*
X1522456Y487196D01*
X1521456Y488196D01*
X1519457D01*
X1518457Y489196D01*
X1519457Y490196D01*
X1522456D01*
X1471472Y371195D02*
X1472472Y372195D01*
X1474471D01*
X1475471Y371195D01*
Y367196D01*
X1474471Y366197D01*
X1472472D01*
X1471472Y367196D01*
Y371195D01*
X1477470Y366197D02*
Y367196D01*
X1478470D01*
Y366197D01*
X1477470D01*
X1486468Y372195D02*
X1482469D01*
Y369196D01*
X1484468Y370196D01*
X1485468D01*
X1486468Y369196D01*
Y367196D01*
X1485468Y366197D01*
X1483469D01*
X1482469Y367196D01*
X1488467Y366197D02*
X1490466D01*
X1489467D01*
Y372195D01*
X1488467Y371195D01*
X1493465Y366197D02*
Y370196D01*
X1494465D01*
X1495465Y369196D01*
Y366197D01*
Y369196D01*
X1496464Y370196D01*
X1497464Y369196D01*
Y366197D01*
X1499463D02*
X1501463D01*
X1500463D01*
Y370196D01*
X1499463D01*
X1504462Y366197D02*
X1506461D01*
X1505461D01*
Y372195D01*
X1504462D01*
X1471472Y378197D02*
X1473472D01*
X1472472D01*
Y384195D01*
X1471472Y383195D01*
X1476471Y378197D02*
Y379197D01*
X1477470D01*
Y378197D01*
X1476471D01*
X1481469Y383195D02*
X1482469Y384195D01*
X1484468D01*
X1485468Y383195D01*
Y382196D01*
X1484468Y381196D01*
X1483469D01*
X1484468D01*
X1485468Y380196D01*
Y379197D01*
X1484468Y378197D01*
X1482469D01*
X1481469Y379197D01*
X1487467Y383195D02*
X1488467Y384195D01*
X1490466D01*
X1491466Y383195D01*
Y382196D01*
X1490466Y381196D01*
X1491466Y380196D01*
Y379197D01*
X1490466Y378197D01*
X1488467D01*
X1487467Y379197D01*
Y380196D01*
X1488467Y381196D01*
X1487467Y382196D01*
Y383195D01*
X1488467Y381196D02*
X1490466D01*
X1493465Y378197D02*
Y382196D01*
X1494465D01*
X1495465Y381196D01*
Y378197D01*
Y381196D01*
X1496464Y382196D01*
X1497464Y381196D01*
Y378197D01*
X1499463D02*
X1501463D01*
X1500463D01*
Y382196D01*
X1499463D01*
X1504462Y378197D02*
X1506461D01*
X1505461D01*
Y384195D01*
X1504462D01*
X1475471Y396195D02*
X1471472D01*
Y393196D01*
X1473472Y394196D01*
X1474471D01*
X1475471Y393196D01*
Y391196D01*
X1474471Y390197D01*
X1472472D01*
X1471472Y391196D01*
X1477470Y390197D02*
Y391196D01*
X1478470D01*
Y390197D01*
X1477470D01*
X1482469D02*
X1484468D01*
X1483469D01*
Y396195D01*
X1482469Y395195D01*
X1491466Y390197D02*
X1487467D01*
X1491466Y394196D01*
Y395195D01*
X1490466Y396195D01*
X1488467D01*
X1487467Y395195D01*
X1493465Y390197D02*
Y394196D01*
X1494465D01*
X1495465Y393196D01*
Y390197D01*
Y393196D01*
X1496464Y394196D01*
X1497464Y393196D01*
Y390197D01*
X1499463D02*
X1501463D01*
X1500463D01*
Y394196D01*
X1499463D01*
X1504462Y390197D02*
X1506461D01*
X1505461D01*
Y396195D01*
X1504462D01*
X1471472Y402197D02*
X1473472D01*
X1472472D01*
Y408195D01*
X1471472Y407195D01*
X1476471Y402197D02*
Y403196D01*
X1477470D01*
Y402197D01*
X1476471D01*
X1481469Y407195D02*
X1482469Y408195D01*
X1484468D01*
X1485468Y407195D01*
Y406196D01*
X1484468Y405196D01*
X1483469D01*
X1484468D01*
X1485468Y404196D01*
Y403196D01*
X1484468Y402197D01*
X1482469D01*
X1481469Y403196D01*
X1487467Y407195D02*
X1488467Y408195D01*
X1490466D01*
X1491466Y407195D01*
Y406196D01*
X1490466Y405196D01*
X1491466Y404196D01*
Y403196D01*
X1490466Y402197D01*
X1488467D01*
X1487467Y403196D01*
Y404196D01*
X1488467Y405196D01*
X1487467Y406196D01*
Y407195D01*
X1488467Y405196D02*
X1490466D01*
X1493465Y402197D02*
Y406196D01*
X1494465D01*
X1495465Y405196D01*
Y402197D01*
Y405196D01*
X1496464Y406196D01*
X1497464Y405196D01*
Y402197D01*
X1499463D02*
X1501463D01*
X1500463D01*
Y406196D01*
X1499463D01*
X1504462Y402197D02*
X1506461D01*
X1505461D01*
Y408195D01*
X1504462D01*
X1474471Y414197D02*
Y420195D01*
X1471472Y417196D01*
X1475471D01*
X1477470Y420195D02*
X1481469D01*
Y419195D01*
X1477470Y415197D01*
Y414197D01*
X1483469D02*
Y415197D01*
X1484468D01*
Y414197D01*
X1483469D01*
X1492466D02*
X1488467D01*
X1492466Y418196D01*
Y419195D01*
X1491466Y420195D01*
X1489467D01*
X1488467Y419195D01*
X1497464Y414197D02*
Y420195D01*
X1494465Y417196D01*
X1498464D01*
X1500463Y414197D02*
Y418196D01*
X1501463D01*
X1502462Y417196D01*
Y414197D01*
Y417196D01*
X1503462Y418196D01*
X1504462Y417196D01*
Y414197D01*
X1506461D02*
X1508461D01*
X1507461D01*
Y418196D01*
X1506461D01*
X1511460Y414197D02*
X1513459D01*
X1512459D01*
Y420195D01*
X1511460D01*
X1471472Y426197D02*
X1473472D01*
X1472472D01*
Y432195D01*
X1471472Y431195D01*
X1476471Y426197D02*
Y427197D01*
X1477470D01*
Y426197D01*
X1476471D01*
X1481469Y431195D02*
X1482469Y432195D01*
X1484468D01*
X1485468Y431195D01*
Y430196D01*
X1484468Y429196D01*
X1483469D01*
X1484468D01*
X1485468Y428196D01*
Y427197D01*
X1484468Y426197D01*
X1482469D01*
X1481469Y427197D01*
X1487467Y431195D02*
X1488467Y432195D01*
X1490466D01*
X1491466Y431195D01*
Y430196D01*
X1490466Y429196D01*
X1491466Y428196D01*
Y427197D01*
X1490466Y426197D01*
X1488467D01*
X1487467Y427197D01*
Y428196D01*
X1488467Y429196D01*
X1487467Y430196D01*
Y431195D01*
X1488467Y429196D02*
X1490466D01*
X1493465Y426197D02*
Y430196D01*
X1494465D01*
X1495465Y429196D01*
Y426197D01*
Y429196D01*
X1496464Y430196D01*
X1497464Y429196D01*
Y426197D01*
X1499463D02*
X1501463D01*
X1500463D01*
Y430196D01*
X1499463D01*
X1504462Y426197D02*
X1506461D01*
X1505461D01*
Y432195D01*
X1504462D01*
X1475471Y444195D02*
X1471472D01*
Y441196D01*
X1473472Y442196D01*
X1474471D01*
X1475471Y441196D01*
Y439196D01*
X1474471Y438197D01*
X1472472D01*
X1471472Y439196D01*
X1477470Y438197D02*
Y439196D01*
X1478470D01*
Y438197D01*
X1477470D01*
X1482469D02*
X1484468D01*
X1483469D01*
Y444195D01*
X1482469Y443195D01*
X1491466Y438197D02*
X1487467D01*
X1491466Y442196D01*
Y443195D01*
X1490466Y444195D01*
X1488467D01*
X1487467Y443195D01*
X1493465Y438197D02*
Y442196D01*
X1494465D01*
X1495465Y441196D01*
Y438197D01*
Y441196D01*
X1496464Y442196D01*
X1497464Y441196D01*
Y438197D01*
X1499463D02*
X1501463D01*
X1500463D01*
Y442196D01*
X1499463D01*
X1504462Y438197D02*
X1506461D01*
X1505461D01*
Y444195D01*
X1504462D01*
X1471472Y450197D02*
X1473472D01*
X1472472D01*
Y456195D01*
X1471472Y455195D01*
X1476471Y450197D02*
Y451196D01*
X1477470D01*
Y450197D01*
X1476471D01*
X1481469Y455195D02*
X1482469Y456195D01*
X1484468D01*
X1485468Y455195D01*
Y454196D01*
X1484468Y453196D01*
X1483469D01*
X1484468D01*
X1485468Y452196D01*
Y451196D01*
X1484468Y450197D01*
X1482469D01*
X1481469Y451196D01*
X1487467Y455195D02*
X1488467Y456195D01*
X1490466D01*
X1491466Y455195D01*
Y454196D01*
X1490466Y453196D01*
X1491466Y452196D01*
Y451196D01*
X1490466Y450197D01*
X1488467D01*
X1487467Y451196D01*
Y452196D01*
X1488467Y453196D01*
X1487467Y454196D01*
Y455195D01*
X1488467Y453196D02*
X1490466D01*
X1493465Y450197D02*
Y454196D01*
X1494465D01*
X1495465Y453196D01*
Y450197D01*
Y453196D01*
X1496464Y454196D01*
X1497464Y453196D01*
Y450197D01*
X1499463D02*
X1501463D01*
X1500463D01*
Y454196D01*
X1499463D01*
X1504462Y450197D02*
X1506461D01*
X1505461D01*
Y456195D01*
X1504462D01*
X1471472Y467195D02*
X1472472Y468195D01*
X1474471D01*
X1475471Y467195D01*
Y463197D01*
X1474471Y462197D01*
X1472472D01*
X1471472Y463197D01*
Y467195D01*
X1477470Y462197D02*
Y463197D01*
X1478470D01*
Y462197D01*
X1477470D01*
X1486468Y468195D02*
X1482469D01*
Y465196D01*
X1484468Y466196D01*
X1485468D01*
X1486468Y465196D01*
Y463197D01*
X1485468Y462197D01*
X1483469D01*
X1482469Y463197D01*
X1488467Y462197D02*
X1490466D01*
X1489467D01*
Y468195D01*
X1488467Y467195D01*
X1493465Y462197D02*
Y466196D01*
X1494465D01*
X1495465Y465196D01*
Y462197D01*
Y465196D01*
X1496464Y466196D01*
X1497464Y465196D01*
Y462197D01*
X1499463D02*
X1501463D01*
X1500463D01*
Y466196D01*
X1499463D01*
X1504462Y462197D02*
X1506461D01*
X1505461D01*
Y468195D01*
X1504462D01*
X1540455Y491195D02*
X1539455Y492195D01*
X1537456D01*
X1536456Y491195D01*
Y487196D01*
X1537456Y486197D01*
X1539455D01*
X1540455Y487196D01*
X1543454Y486197D02*
X1545453D01*
X1546453Y487196D01*
Y489196D01*
X1545453Y490196D01*
X1543454D01*
X1542454Y489196D01*
Y487196D01*
X1543454Y486197D01*
X1548452D02*
Y490196D01*
X1551451D01*
X1552451Y489196D01*
Y486197D01*
X1554450D02*
X1557449D01*
X1558449Y487196D01*
X1557449Y488196D01*
X1555450D01*
X1554450Y489196D01*
X1555450Y490196D01*
X1558449D01*
X1561448Y491195D02*
Y490196D01*
X1560448D01*
X1562447D01*
X1561448D01*
Y487196D01*
X1562447Y486197D01*
X1566446Y490196D02*
X1568446D01*
X1569445Y489196D01*
Y486197D01*
X1566446D01*
X1565447Y487196D01*
X1566446Y488196D01*
X1569445D01*
X1571445Y486197D02*
Y490196D01*
X1574444D01*
X1575443Y489196D01*
Y486197D01*
X1578442Y491195D02*
Y490196D01*
X1577443D01*
X1579442D01*
X1578442D01*
Y487196D01*
X1579442Y486197D01*
X1536456Y371195D02*
X1537456Y372195D01*
X1539455D01*
X1540455Y371195D01*
Y370196D01*
X1539455Y369196D01*
X1538455D01*
X1539455D01*
X1540455Y368196D01*
Y367196D01*
X1539455Y366197D01*
X1537456D01*
X1536456Y367196D01*
X1542454Y366197D02*
Y367196D01*
X1543454D01*
Y366197D01*
X1542454D01*
X1547452Y371195D02*
X1548452Y372195D01*
X1550451D01*
X1551451Y371195D01*
Y370196D01*
X1550451Y369196D01*
X1549452D01*
X1550451D01*
X1551451Y368196D01*
Y367196D01*
X1550451Y366197D01*
X1548452D01*
X1547452Y367196D01*
X1539455Y390197D02*
Y396195D01*
X1536456Y393196D01*
X1540455D01*
X1542454Y390197D02*
Y391196D01*
X1543454D01*
Y390197D01*
X1542454D01*
X1551451D02*
X1547452D01*
X1551451Y394196D01*
Y395195D01*
X1550451Y396195D01*
X1548452D01*
X1547452Y395195D01*
X1539455Y414197D02*
Y420195D01*
X1536456Y417196D01*
X1540455D01*
X1542454Y414197D02*
Y415197D01*
X1543454D01*
Y414197D01*
X1542454D01*
X1551451D02*
X1547452D01*
X1551451Y418196D01*
Y419195D01*
X1550451Y420195D01*
X1548452D01*
X1547452Y419195D01*
X1539455Y438197D02*
Y444195D01*
X1536456Y441196D01*
X1540455D01*
X1542454Y438197D02*
Y439196D01*
X1543454D01*
Y438197D01*
X1542454D01*
X1551451D02*
X1547452D01*
X1551451Y442196D01*
Y443195D01*
X1550451Y444195D01*
X1548452D01*
X1547452Y443195D01*
X1536456Y467195D02*
X1537456Y468195D01*
X1539455D01*
X1540455Y467195D01*
Y466196D01*
X1539455Y465196D01*
X1538455D01*
X1539455D01*
X1540455Y464196D01*
Y463197D01*
X1539455Y462197D01*
X1537456D01*
X1536456Y463197D01*
X1542454Y462197D02*
Y463197D01*
X1543454D01*
Y462197D01*
X1542454D01*
X1547452Y467195D02*
X1548452Y468195D01*
X1550451D01*
X1551451Y467195D01*
Y466196D01*
X1550451Y465196D01*
X1549452D01*
X1550451D01*
X1551451Y464196D01*
Y463197D01*
X1550451Y462197D01*
X1548452D01*
X1547452Y463197D01*
X1593442Y492195D02*
Y486197D01*
X1596441D01*
X1597441Y487196D01*
Y488196D01*
X1596441Y489196D01*
X1593442D01*
X1596441D01*
X1597441Y490196D01*
Y491195D01*
X1596441Y492195D01*
X1593442D01*
X1600440Y486197D02*
X1602439D01*
X1603439Y487196D01*
Y489196D01*
X1602439Y490196D01*
X1600440D01*
X1599440Y489196D01*
Y487196D01*
X1600440Y486197D01*
X1606438Y490196D02*
X1608437D01*
X1609437Y489196D01*
Y486197D01*
X1606438D01*
X1605438Y487196D01*
X1606438Y488196D01*
X1609437D01*
X1611436Y490196D02*
Y486197D01*
Y488196D01*
X1612436Y489196D01*
X1613436Y490196D01*
X1614435D01*
X1621433Y492195D02*
Y486197D01*
X1618434D01*
X1617434Y487196D01*
Y489196D01*
X1618434Y490196D01*
X1621433D01*
X1629430Y492195D02*
Y486197D01*
X1633429D01*
X1636428Y490196D02*
X1638428D01*
X1639427Y489196D01*
Y486197D01*
X1636428D01*
X1635428Y487196D01*
X1636428Y488196D01*
X1639427D01*
X1641426Y490196D02*
Y487196D01*
X1642426Y486197D01*
X1645425D01*
Y485197D01*
X1644426Y484198D01*
X1643426D01*
X1645425Y486197D02*
Y490196D01*
X1650424Y486197D02*
X1648424D01*
X1647425Y487196D01*
Y489196D01*
X1648424Y490196D01*
X1650424D01*
X1651423Y489196D01*
Y488196D01*
X1647425D01*
X1653423Y490196D02*
Y486197D01*
Y488196D01*
X1654422Y489196D01*
X1655422Y490196D01*
X1656422D01*
X1669418Y491195D02*
X1668418Y492195D01*
X1666418D01*
X1665419Y491195D01*
Y490196D01*
X1666418Y489196D01*
X1668418D01*
X1669418Y488196D01*
Y487196D01*
X1668418Y486197D01*
X1666418D01*
X1665419Y487196D01*
X1672416Y491195D02*
Y490196D01*
X1671417D01*
X1673416D01*
X1672416D01*
Y487196D01*
X1673416Y486197D01*
X1677415Y490196D02*
X1679414D01*
X1680414Y489196D01*
Y486197D01*
X1677415D01*
X1676415Y487196D01*
X1677415Y488196D01*
X1680414D01*
X1686412Y490196D02*
X1683413D01*
X1682413Y489196D01*
Y487196D01*
X1683413Y486197D01*
X1686412D01*
X1688411D02*
Y492195D01*
Y488196D02*
X1691410Y490196D01*
X1688411Y488196D02*
X1691410Y486197D01*
D22*
X1243530Y483197D02*
X1698410D01*
X1243530Y495197D02*
X1698410D01*
X1243530Y351197D02*
Y495197D01*
Y351197D02*
X1284522D01*
X1243530Y363197D02*
X1284522D01*
X1243530Y375197D02*
X1284522D01*
X1243530Y387197D02*
X1284522D01*
X1243530Y399197D02*
X1284522D01*
X1243530Y411197D02*
X1284522D01*
X1243530Y423197D02*
X1284522D01*
X1243530Y435197D02*
X1284522D01*
X1243530Y447197D02*
X1284522D01*
X1243530Y459197D02*
X1284522D01*
X1243530Y471197D02*
X1284522D01*
Y351197D02*
Y495197D01*
Y351197D02*
X1378496D01*
X1284522Y363197D02*
X1378496D01*
X1284522Y375197D02*
X1378496D01*
X1284522Y387197D02*
X1378496D01*
X1284522Y399197D02*
X1378496D01*
X1284522Y411197D02*
X1378496D01*
X1284522Y423197D02*
X1378496D01*
X1284522Y435197D02*
X1378496D01*
X1284522Y447197D02*
X1378496D01*
X1284522Y459197D02*
X1378496D01*
X1284522Y471197D02*
X1378496D01*
Y351197D02*
Y495197D01*
Y351197D02*
X1464472D01*
X1378496Y363197D02*
X1464472D01*
X1378496Y375197D02*
X1464472D01*
X1378496Y387197D02*
X1464472D01*
X1378496Y399197D02*
X1464472D01*
X1378496Y411197D02*
X1464472D01*
X1378496Y423197D02*
X1464472D01*
X1378496Y435197D02*
X1464472D01*
X1378496Y447197D02*
X1464472D01*
X1378496Y459197D02*
X1464472D01*
X1378496Y471197D02*
X1464472D01*
Y351197D02*
Y495197D01*
Y351197D02*
X1529456D01*
X1464472Y363197D02*
X1529456D01*
X1464472Y375197D02*
X1529456D01*
X1464472Y387197D02*
X1529456D01*
X1464472Y399197D02*
X1529456D01*
X1464472Y411197D02*
X1529456D01*
X1464472Y423197D02*
X1529456D01*
X1464472Y435197D02*
X1529456D01*
X1464472Y447197D02*
X1529456D01*
X1464472Y459197D02*
X1529456D01*
X1464472Y471197D02*
X1529456D01*
Y351197D02*
Y495197D01*
Y351197D02*
X1586442D01*
X1529456Y363197D02*
X1586442D01*
X1529456Y375197D02*
X1586442D01*
X1529456Y387197D02*
X1586442D01*
X1529456Y399197D02*
X1586442D01*
X1529456Y411197D02*
X1586442D01*
X1529456Y423197D02*
X1586442D01*
X1529456Y435197D02*
X1586442D01*
X1529456Y447197D02*
X1586442D01*
X1529456Y459197D02*
X1586442D01*
X1529456Y471197D02*
X1586442D01*
Y351197D02*
Y495197D01*
Y351197D02*
X1698410D01*
X1586442Y363197D02*
X1698410D01*
X1586442Y375197D02*
X1698410D01*
X1586442Y387197D02*
X1698410D01*
X1586442Y399197D02*
X1698410D01*
X1586442Y411197D02*
X1698410D01*
X1586442Y423197D02*
X1698410D01*
X1586442Y435197D02*
X1698410D01*
X1586442Y447197D02*
X1698410D01*
X1586442Y459197D02*
X1698410D01*
X1586442Y471197D02*
X1698410D01*
Y351197D02*
Y495197D01*
D23*
X1692410Y351197D02*
X1698410Y357197D01*
X1686410Y351197D02*
X1698410Y363197D01*
X1680410Y351197D02*
X1692410Y363197D01*
X1674410Y351197D02*
X1686410Y363197D01*
X1668410Y351197D02*
X1680410Y363197D01*
X1662410Y351197D02*
X1674410Y363197D01*
X1656410Y351197D02*
X1668410Y363197D01*
X1650410Y351197D02*
X1662410Y363197D01*
X1644410Y351197D02*
X1656410Y363197D01*
X1638410Y351197D02*
X1650410Y363197D01*
X1632410Y351197D02*
X1644410Y363197D01*
X1626410Y351197D02*
X1638410Y363197D01*
X1620410Y351197D02*
X1632410Y363197D01*
X1614410Y351197D02*
X1626410Y363197D01*
X1608410Y351197D02*
X1620410Y363197D01*
X1602410Y351197D02*
X1614410Y363197D01*
X1596410Y351197D02*
X1608410Y363197D01*
X1590410Y351197D02*
X1602410Y363197D01*
X1586442Y353228D02*
X1596410Y363197D01*
X1586442Y359228D02*
X1590410Y363197D01*
X1692410D02*
X1698410Y369197D01*
X1686410Y363197D02*
X1698410Y375197D01*
X1680410Y363197D02*
X1692410Y375197D01*
X1674410Y363197D02*
X1686410Y375197D01*
X1668410Y363197D02*
X1680410Y375197D01*
X1662410Y363197D02*
X1674410Y375197D01*
X1656410Y363197D02*
X1668410Y375197D01*
X1650410Y363197D02*
X1662410Y375197D01*
X1644410Y363197D02*
X1656410Y375197D01*
X1638410Y363197D02*
X1650410Y375197D01*
X1632410Y363197D02*
X1644410Y375197D01*
X1626410Y363197D02*
X1638410Y375197D01*
X1620410Y363197D02*
X1632410Y375197D01*
X1614410Y363197D02*
X1626410Y375197D01*
X1608410Y363197D02*
X1620410Y375197D01*
X1602410Y363197D02*
X1614410Y375197D01*
X1596410Y363197D02*
X1608410Y375197D01*
X1590410Y363197D02*
X1602410Y375197D01*
X1586442Y365229D02*
X1596410Y375197D01*
X1586442Y371229D02*
X1590410Y375197D01*
X1692410D02*
X1698410Y381197D01*
X1686410Y375197D02*
X1698410Y387197D01*
X1680410Y375197D02*
X1692410Y387197D01*
X1674410Y375197D02*
X1686410Y387197D01*
X1668410Y375197D02*
X1680410Y387197D01*
X1662410Y375197D02*
X1674410Y387197D01*
X1656410Y375197D02*
X1668410Y387197D01*
X1650410Y375197D02*
X1662410Y387197D01*
X1644410Y375197D02*
X1656410Y387197D01*
X1638410Y375197D02*
X1650410Y387197D01*
X1632410Y375197D02*
X1644410Y387197D01*
X1626410Y375197D02*
X1638410Y387197D01*
X1620410Y375197D02*
X1632410Y387197D01*
X1614410Y375197D02*
X1626410Y387197D01*
X1608410Y375197D02*
X1620410Y387197D01*
X1602410Y375197D02*
X1614410Y387197D01*
X1596410Y375197D02*
X1608410Y387197D01*
X1590410Y375197D02*
X1602410Y387197D01*
X1586442Y377228D02*
X1596410Y387197D01*
X1586442Y383228D02*
X1590410Y387197D01*
X1692410D02*
X1698410Y393197D01*
X1686410Y387197D02*
X1698410Y399197D01*
X1680410Y387197D02*
X1692410Y399197D01*
X1674410Y387197D02*
X1686410Y399197D01*
X1668410Y387197D02*
X1680410Y399197D01*
X1662410Y387197D02*
X1674410Y399197D01*
X1656410Y387197D02*
X1668410Y399197D01*
X1650410Y387197D02*
X1662410Y399197D01*
X1644410Y387197D02*
X1656410Y399197D01*
X1638410Y387197D02*
X1650410Y399197D01*
X1632410Y387197D02*
X1644410Y399197D01*
X1626410Y387197D02*
X1638410Y399197D01*
X1620410Y387197D02*
X1632410Y399197D01*
X1614410Y387197D02*
X1626410Y399197D01*
X1608410Y387197D02*
X1620410Y399197D01*
X1602410Y387197D02*
X1614410Y399197D01*
X1596410Y387197D02*
X1608410Y399197D01*
X1590410Y387197D02*
X1602410Y399197D01*
X1586442Y389229D02*
X1596410Y399197D01*
X1586442Y395229D02*
X1590410Y399197D01*
X1692410D02*
X1698410Y405197D01*
X1686410Y399197D02*
X1698410Y411197D01*
X1680410Y399197D02*
X1692410Y411197D01*
X1674410Y399197D02*
X1686410Y411197D01*
X1668410Y399197D02*
X1680410Y411197D01*
X1662410Y399197D02*
X1674410Y411197D01*
X1656410Y399197D02*
X1668410Y411197D01*
X1650410Y399197D02*
X1662410Y411197D01*
X1644410Y399197D02*
X1656410Y411197D01*
X1638410Y399197D02*
X1650410Y411197D01*
X1632410Y399197D02*
X1644410Y411197D01*
X1626410Y399197D02*
X1638410Y411197D01*
X1620410Y399197D02*
X1632410Y411197D01*
X1614410Y399197D02*
X1626410Y411197D01*
X1608410Y399197D02*
X1620410Y411197D01*
X1602410Y399197D02*
X1614410Y411197D01*
X1596410Y399197D02*
X1608410Y411197D01*
X1590410Y399197D02*
X1602410Y411197D01*
X1586442Y401229D02*
X1596410Y411197D01*
X1586442Y407229D02*
X1590410Y411197D01*
X1692410D02*
X1698410Y417197D01*
X1686410Y411197D02*
X1698410Y423197D01*
X1680410Y411197D02*
X1692410Y423197D01*
X1674410Y411197D02*
X1686410Y423197D01*
X1668410Y411197D02*
X1680410Y423197D01*
X1662410Y411197D02*
X1674410Y423197D01*
X1656410Y411197D02*
X1668410Y423197D01*
X1650410Y411197D02*
X1662410Y423197D01*
X1644410Y411197D02*
X1656410Y423197D01*
X1638410Y411197D02*
X1650410Y423197D01*
X1632410Y411197D02*
X1644410Y423197D01*
X1626410Y411197D02*
X1638410Y423197D01*
X1620410Y411197D02*
X1632410Y423197D01*
X1614410Y411197D02*
X1626410Y423197D01*
X1608410Y411197D02*
X1620410Y423197D01*
X1602410Y411197D02*
X1614410Y423197D01*
X1596410Y411197D02*
X1608410Y423197D01*
X1590410Y411197D02*
X1602410Y423197D01*
X1586442Y413229D02*
X1596410Y423197D01*
X1586442Y419229D02*
X1590410Y423197D01*
X1692410D02*
X1698410Y429197D01*
X1686410Y423197D02*
X1698410Y435197D01*
X1680410Y423197D02*
X1692410Y435197D01*
X1674410Y423197D02*
X1686410Y435197D01*
X1668410Y423197D02*
X1680410Y435197D01*
X1662410Y423197D02*
X1674410Y435197D01*
X1656410Y423197D02*
X1668410Y435197D01*
X1650410Y423197D02*
X1662410Y435197D01*
X1644410Y423197D02*
X1656410Y435197D01*
X1638410Y423197D02*
X1650410Y435197D01*
X1632410Y423197D02*
X1644410Y435197D01*
X1626410Y423197D02*
X1638410Y435197D01*
X1620410Y423197D02*
X1632410Y435197D01*
X1614410Y423197D02*
X1626410Y435197D01*
X1608410Y423197D02*
X1620410Y435197D01*
X1602410Y423197D02*
X1614410Y435197D01*
X1596410Y423197D02*
X1608410Y435197D01*
X1590410Y423197D02*
X1602410Y435197D01*
X1586442Y425229D02*
X1596410Y435197D01*
X1586442Y431228D02*
X1590410Y435197D01*
X1692410D02*
X1698410Y441197D01*
X1686410Y435197D02*
X1698410Y447197D01*
X1680410Y435197D02*
X1692410Y447197D01*
X1674410Y435197D02*
X1686410Y447197D01*
X1668410Y435197D02*
X1680410Y447197D01*
X1662410Y435197D02*
X1674410Y447197D01*
X1656410Y435197D02*
X1668410Y447197D01*
X1650410Y435197D02*
X1662410Y447197D01*
X1644410Y435197D02*
X1656410Y447197D01*
X1638410Y435197D02*
X1650410Y447197D01*
X1632410Y435197D02*
X1644410Y447197D01*
X1626410Y435197D02*
X1638410Y447197D01*
X1620410Y435197D02*
X1632410Y447197D01*
X1614410Y435197D02*
X1626410Y447197D01*
X1608410Y435197D02*
X1620410Y447197D01*
X1602410Y435197D02*
X1614410Y447197D01*
X1596410Y435197D02*
X1608410Y447197D01*
X1590410Y435197D02*
X1602410Y447197D01*
X1586442Y437228D02*
X1596410Y447197D01*
X1586442Y443228D02*
X1590410Y447197D01*
X1692410D02*
X1698410Y453197D01*
X1686410Y447197D02*
X1698410Y459197D01*
X1680410Y447197D02*
X1692410Y459197D01*
X1674410Y447197D02*
X1686410Y459197D01*
X1668410Y447197D02*
X1680410Y459197D01*
X1662410Y447197D02*
X1674410Y459197D01*
X1656410Y447197D02*
X1668410Y459197D01*
X1650410Y447197D02*
X1662410Y459197D01*
X1644410Y447197D02*
X1656410Y459197D01*
X1638410Y447197D02*
X1650410Y459197D01*
X1632410Y447197D02*
X1644410Y459197D01*
X1626410Y447197D02*
X1638410Y459197D01*
X1620410Y447197D02*
X1632410Y459197D01*
X1614410Y447197D02*
X1626410Y459197D01*
X1608410Y447197D02*
X1620410Y459197D01*
X1602410Y447197D02*
X1614410Y459197D01*
X1596410Y447197D02*
X1608410Y459197D01*
X1590410Y447197D02*
X1602410Y459197D01*
X1586442Y449228D02*
X1596410Y459197D01*
X1586442Y455229D02*
X1590410Y459197D01*
X1692410D02*
X1698410Y465197D01*
X1686410Y459197D02*
X1698410Y471197D01*
X1680410Y459197D02*
X1692410Y471197D01*
X1674410Y459197D02*
X1686410Y471197D01*
X1668410Y459197D02*
X1680410Y471197D01*
X1662410Y459197D02*
X1674410Y471197D01*
X1656410Y459197D02*
X1668410Y471197D01*
X1650410Y459197D02*
X1662410Y471197D01*
X1644410Y459197D02*
X1656410Y471197D01*
X1638410Y459197D02*
X1650410Y471197D01*
X1632410Y459197D02*
X1644410Y471197D01*
X1626410Y459197D02*
X1638410Y471197D01*
X1620410Y459197D02*
X1632410Y471197D01*
X1614410Y459197D02*
X1626410Y471197D01*
X1608410Y459197D02*
X1620410Y471197D01*
X1602410Y459197D02*
X1614410Y471197D01*
X1596410Y459197D02*
X1608410Y471197D01*
X1590410Y459197D02*
X1602410Y471197D01*
X1586442Y461229D02*
X1596410Y471197D01*
X1586442Y467229D02*
X1590410Y471197D01*
X1692410D02*
X1698410Y477197D01*
X1686410Y471197D02*
X1698410Y483197D01*
X1680410Y471197D02*
X1692410Y483197D01*
X1674410Y471197D02*
X1686410Y483197D01*
X1668410Y471197D02*
X1680410Y483197D01*
X1662410Y471197D02*
X1674410Y483197D01*
X1656410Y471197D02*
X1668410Y483197D01*
X1650410Y471197D02*
X1662410Y483197D01*
X1644410Y471197D02*
X1656410Y483197D01*
X1638410Y471197D02*
X1650410Y483197D01*
X1632410Y471197D02*
X1644410Y483197D01*
X1626410Y471197D02*
X1638410Y483197D01*
X1620410Y471197D02*
X1632410Y483197D01*
X1614410Y471197D02*
X1626410Y483197D01*
X1608410Y471197D02*
X1620410Y483197D01*
X1602410Y471197D02*
X1614410Y483197D01*
X1596410Y471197D02*
X1608410Y483197D01*
X1590410Y471197D02*
X1602410Y483197D01*
X1586442Y473229D02*
X1596410Y483197D01*
X1586442Y479228D02*
X1590410Y483197D01*
D40*
X831496Y859265D02*
D03*
D41*
X1132874Y780020D02*
D03*
X1137795D02*
D03*
X1142717D02*
D03*
X855512D02*
D03*
X850591D02*
D03*
X845669D02*
D03*
X786614D02*
D03*
X791535D02*
D03*
X796457D02*
D03*
X1093504D02*
D03*
X1088583D02*
D03*
X1083661D02*
D03*
D42*
X1122835Y769193D02*
D03*
X1152756D02*
D03*
X865551D02*
D03*
X835630D02*
D03*
X776575D02*
D03*
X806496D02*
D03*
X1103543D02*
D03*
X1073622D02*
D03*
X77461Y769587D02*
D03*
X32776D02*
D03*
X133563D02*
D03*
X88878D02*
D03*
D43*
X1167717Y807087D02*
D03*
X1161417Y59055D02*
D03*
X19685Y59055D02*
D03*
X19685Y456693D02*
D03*
X1161417D02*
D03*
X779528D02*
D03*
X401575D02*
D03*
X19685Y802362D02*
D03*
D44*
X917328Y857066D02*
D03*
X908328D02*
D03*
X891909Y832066D02*
D03*
X900909D02*
D03*
X938079Y835666D02*
D03*
X947079D02*
D03*
X997439Y768835D02*
D03*
X988439D02*
D03*
X998540Y800922D02*
D03*
X1007540D02*
D03*
X1006118Y812438D02*
D03*
X997118D02*
D03*
D45*
X960335Y852854D02*
D03*
X968209D02*
D03*
X1084067Y425779D02*
D03*
X332598Y51709D02*
D03*
X710630Y51709D02*
D03*
X1084567Y51653D02*
D03*
X710839Y425779D02*
D03*
X711587Y840118D02*
D03*
X336642Y425724D02*
D03*
X332598Y31654D02*
D03*
X710839Y405724D02*
D03*
X710630Y31709D02*
D03*
X1084067Y405780D02*
D03*
X1084567Y31653D02*
D03*
X711587Y820118D02*
D03*
X336640Y405724D02*
D03*
X858976Y800298D02*
D03*
X220000Y770472D02*
D03*
X354803Y771654D02*
D03*
X11929Y710728D02*
D03*
D46*
X969390Y842224D02*
D03*
X966831D02*
D03*
X964272D02*
D03*
X961713D02*
D03*
X959154D02*
D03*
D47*
X978066Y818540D02*
D03*
X976098D02*
D03*
X974129D02*
D03*
X972161D02*
D03*
X970192D02*
D03*
X968224D02*
D03*
X962318D02*
D03*
X960350D02*
D03*
X958381D02*
D03*
X956413D02*
D03*
X954444D02*
D03*
X952476D02*
D03*
X950507D02*
D03*
X948539D02*
D03*
Y774643D02*
D03*
X950507D02*
D03*
X952476D02*
D03*
X954444D02*
D03*
X956413D02*
D03*
X958381D02*
D03*
X960350D02*
D03*
X962318D02*
D03*
X964287D02*
D03*
X966255D02*
D03*
X968224D02*
D03*
X970192D02*
D03*
X972161D02*
D03*
X974129D02*
D03*
X976098D02*
D03*
X978066D02*
D03*
X964287Y818540D02*
D03*
X966255D02*
D03*
D48*
X941354Y811355D02*
D03*
Y809387D02*
D03*
Y807418D02*
D03*
Y805450D02*
D03*
Y803481D02*
D03*
Y801513D02*
D03*
Y799544D02*
D03*
Y797576D02*
D03*
Y795607D02*
D03*
Y793639D02*
D03*
Y791670D02*
D03*
Y789702D02*
D03*
Y787733D02*
D03*
Y785765D02*
D03*
Y783796D02*
D03*
Y781828D02*
D03*
X985251D02*
D03*
Y783796D02*
D03*
Y785765D02*
D03*
Y787733D02*
D03*
Y789702D02*
D03*
Y791670D02*
D03*
Y793639D02*
D03*
Y795607D02*
D03*
Y797576D02*
D03*
Y799544D02*
D03*
Y801513D02*
D03*
Y803481D02*
D03*
Y805450D02*
D03*
Y807418D02*
D03*
Y809387D02*
D03*
Y811355D02*
D03*
D49*
X908321Y836396D02*
D03*
Y843396D02*
D03*
X968209Y833442D02*
D03*
Y826442D02*
D03*
X967239Y760454D02*
D03*
Y767454D02*
D03*
X956314Y759824D02*
D03*
Y766824D02*
D03*
X1023808Y840420D02*
D03*
Y847420D02*
D03*
X956004Y825769D02*
D03*
Y832769D02*
D03*
X962303Y833442D02*
D03*
Y826442D02*
D03*
D50*
X890915Y840137D02*
D03*
X883435D02*
D03*
Y849585D02*
D03*
X887175D02*
D03*
X890915D02*
D03*
D51*
X887175Y856770D02*
D03*
X894175D02*
D03*
X908671Y849684D02*
D03*
X901671D02*
D03*
X999480Y783796D02*
D03*
X992480D02*
D03*
X994193Y818737D02*
D03*
X987193D02*
D03*
X992480Y793737D02*
D03*
X999480D02*
D03*
X927032Y783359D02*
D03*
X934032D02*
D03*
X994471Y776021D02*
D03*
X987471D02*
D03*
X927047Y805450D02*
D03*
X934047D02*
D03*
X940340Y828080D02*
D03*
X947340D02*
D03*
X1024846Y833661D02*
D03*
X1031846D02*
D03*
D52*
X908616Y820282D02*
D03*
Y829282D02*
D03*
X881860Y832235D02*
D03*
Y823235D02*
D03*
D53*
X1035271Y842499D02*
D03*
Y857066D02*
D03*
D54*
X20177Y677461D02*
D03*
Y642618D02*
D03*
X20669Y556201D02*
D03*
Y521358D02*
D03*
D55*
X9350Y667421D02*
D03*
Y662500D02*
D03*
Y657579D02*
D03*
Y652658D02*
D03*
X9843Y546161D02*
D03*
Y541240D02*
D03*
Y536319D02*
D03*
Y531398D02*
D03*
D56*
X67421Y780413D02*
D03*
X57579D02*
D03*
X52657D02*
D03*
X47736D02*
D03*
X42815D02*
D03*
X62500D02*
D03*
X123524D02*
D03*
X113681D02*
D03*
X108760D02*
D03*
X103839D02*
D03*
X98917D02*
D03*
X118602D02*
D03*
D57*
X834067Y415779D02*
D03*
Y425779D02*
D03*
X1084067Y415779D02*
D03*
X1074067Y425779D02*
D03*
Y415779D02*
D03*
X1064067Y425779D02*
D03*
Y415779D02*
D03*
X1054067Y425779D02*
D03*
Y415779D02*
D03*
X1044067Y425779D02*
D03*
Y415779D02*
D03*
X1034067Y425779D02*
D03*
Y415779D02*
D03*
X1024067Y425779D02*
D03*
Y415779D02*
D03*
X1014067Y425779D02*
D03*
Y415779D02*
D03*
X1003969Y425779D02*
D03*
X1004067Y415779D02*
D03*
X994067Y425779D02*
D03*
Y415779D02*
D03*
X984067Y425779D02*
D03*
Y415779D02*
D03*
X974067Y425779D02*
D03*
Y415779D02*
D03*
X964067Y425779D02*
D03*
Y415779D02*
D03*
X954067Y425779D02*
D03*
Y415779D02*
D03*
X944067Y425779D02*
D03*
Y415779D02*
D03*
X934067Y425779D02*
D03*
Y415779D02*
D03*
X924067Y425779D02*
D03*
Y415779D02*
D03*
X914067Y425779D02*
D03*
Y415779D02*
D03*
X904067Y425779D02*
D03*
Y415779D02*
D03*
X894067Y425779D02*
D03*
Y415779D02*
D03*
X884067Y425779D02*
D03*
Y415779D02*
D03*
X874067Y425779D02*
D03*
Y415779D02*
D03*
X864067Y425779D02*
D03*
Y415779D02*
D03*
X854067Y425779D02*
D03*
Y415779D02*
D03*
X844067Y425779D02*
D03*
Y415779D02*
D03*
X92598Y41709D02*
D03*
Y51709D02*
D03*
X102598Y41709D02*
D03*
Y51709D02*
D03*
X112598Y41709D02*
D03*
Y51709D02*
D03*
X122598Y41709D02*
D03*
Y51709D02*
D03*
X132598Y41709D02*
D03*
Y51709D02*
D03*
X142598Y41709D02*
D03*
Y51709D02*
D03*
X152598Y41709D02*
D03*
Y51709D02*
D03*
X162598Y41709D02*
D03*
Y51709D02*
D03*
X172598Y41709D02*
D03*
Y51709D02*
D03*
X182598Y41709D02*
D03*
Y51709D02*
D03*
X192598Y41709D02*
D03*
Y51709D02*
D03*
X202598Y41709D02*
D03*
Y51709D02*
D03*
X212598Y41709D02*
D03*
Y51709D02*
D03*
X222598Y41709D02*
D03*
Y51709D02*
D03*
X232598Y41709D02*
D03*
Y51709D02*
D03*
X242598Y41709D02*
D03*
Y51709D02*
D03*
X252598Y41709D02*
D03*
X252500Y51709D02*
D03*
X262598Y41709D02*
D03*
Y51709D02*
D03*
X272598Y41709D02*
D03*
Y51709D02*
D03*
X282598Y41709D02*
D03*
Y51709D02*
D03*
X292598Y41709D02*
D03*
Y51709D02*
D03*
X302598Y41709D02*
D03*
Y51709D02*
D03*
X312598Y41709D02*
D03*
Y51709D02*
D03*
X322598Y41709D02*
D03*
Y51709D02*
D03*
X332598Y41709D02*
D03*
X82598Y51709D02*
D03*
Y41709D02*
D03*
X460630Y41709D02*
D03*
Y51709D02*
D03*
X710630Y41709D02*
D03*
X700630Y51709D02*
D03*
Y41709D02*
D03*
X690630Y51709D02*
D03*
Y41709D02*
D03*
X680630Y51709D02*
D03*
Y41709D02*
D03*
X670630Y51709D02*
D03*
Y41709D02*
D03*
X660630Y51709D02*
D03*
Y41709D02*
D03*
X650630Y51709D02*
D03*
Y41709D02*
D03*
X640630Y51709D02*
D03*
Y41709D02*
D03*
X630532Y51709D02*
D03*
X630630Y41709D02*
D03*
X620630Y51709D02*
D03*
Y41709D02*
D03*
X610630Y51709D02*
D03*
Y41709D02*
D03*
X600630Y51709D02*
D03*
Y41709D02*
D03*
X590630Y51709D02*
D03*
Y41709D02*
D03*
X580630Y51709D02*
D03*
Y41709D02*
D03*
X570630Y51709D02*
D03*
Y41709D02*
D03*
X560630Y51709D02*
D03*
Y41709D02*
D03*
X550630Y51709D02*
D03*
Y41709D02*
D03*
X540630Y51709D02*
D03*
Y41709D02*
D03*
X530630Y51709D02*
D03*
Y41709D02*
D03*
X520630Y51709D02*
D03*
Y41709D02*
D03*
X510630Y51709D02*
D03*
Y41709D02*
D03*
X500630Y51709D02*
D03*
Y41709D02*
D03*
X490630Y51709D02*
D03*
Y41709D02*
D03*
X480630Y51709D02*
D03*
Y41709D02*
D03*
X470630Y51709D02*
D03*
Y41709D02*
D03*
X844567Y41653D02*
D03*
Y51653D02*
D03*
X854567Y41653D02*
D03*
Y51653D02*
D03*
X864567Y41653D02*
D03*
Y51653D02*
D03*
X874567Y41653D02*
D03*
Y51653D02*
D03*
X884567Y41653D02*
D03*
Y51653D02*
D03*
X894567Y41653D02*
D03*
Y51653D02*
D03*
X904567Y41653D02*
D03*
Y51653D02*
D03*
X914567Y41653D02*
D03*
Y51653D02*
D03*
X924567Y41653D02*
D03*
Y51653D02*
D03*
X934567Y41653D02*
D03*
Y51653D02*
D03*
X944567Y41653D02*
D03*
Y51653D02*
D03*
X954567Y41653D02*
D03*
Y51653D02*
D03*
X964567Y41653D02*
D03*
Y51653D02*
D03*
X974567Y41653D02*
D03*
Y51653D02*
D03*
X984567Y41653D02*
D03*
Y51653D02*
D03*
X994567Y41653D02*
D03*
Y51653D02*
D03*
X1004567Y41653D02*
D03*
X1004469Y51653D02*
D03*
X1014567Y41653D02*
D03*
Y51653D02*
D03*
X1024567Y41653D02*
D03*
Y51653D02*
D03*
X1034567Y41653D02*
D03*
Y51653D02*
D03*
X1044567Y41653D02*
D03*
Y51653D02*
D03*
X1054567Y41653D02*
D03*
Y51653D02*
D03*
X1064567Y41653D02*
D03*
Y51653D02*
D03*
X1074567Y41653D02*
D03*
Y51653D02*
D03*
X1084567Y41653D02*
D03*
X834567Y51653D02*
D03*
Y41653D02*
D03*
X460839Y415779D02*
D03*
Y425779D02*
D03*
X710839Y415779D02*
D03*
X700839Y425779D02*
D03*
Y415779D02*
D03*
X690839Y425779D02*
D03*
Y415779D02*
D03*
X680839Y425779D02*
D03*
Y415779D02*
D03*
X670839Y425779D02*
D03*
Y415779D02*
D03*
X660839Y425779D02*
D03*
Y415779D02*
D03*
X650839Y425779D02*
D03*
Y415779D02*
D03*
X640839Y425779D02*
D03*
Y415779D02*
D03*
X630740Y425779D02*
D03*
X630839Y415779D02*
D03*
X620839Y425779D02*
D03*
Y415779D02*
D03*
X610839Y425779D02*
D03*
Y415779D02*
D03*
X600839Y425779D02*
D03*
Y415779D02*
D03*
X590839Y425779D02*
D03*
Y415779D02*
D03*
X580839Y425779D02*
D03*
Y415779D02*
D03*
X570839Y425779D02*
D03*
Y415779D02*
D03*
X560839Y425779D02*
D03*
Y415779D02*
D03*
X550839Y425779D02*
D03*
Y415779D02*
D03*
X540839Y425779D02*
D03*
Y415779D02*
D03*
X530839Y425779D02*
D03*
Y415779D02*
D03*
X520839Y425779D02*
D03*
Y415779D02*
D03*
X510839Y425779D02*
D03*
Y415779D02*
D03*
X500839Y425779D02*
D03*
Y415779D02*
D03*
X490839Y425779D02*
D03*
Y415779D02*
D03*
X480839Y425779D02*
D03*
Y415779D02*
D03*
X470839Y425779D02*
D03*
Y415779D02*
D03*
X461587Y830118D02*
D03*
Y840118D02*
D03*
X711587Y830118D02*
D03*
X701587Y840118D02*
D03*
Y830118D02*
D03*
X691587Y840118D02*
D03*
Y830118D02*
D03*
X681587Y840118D02*
D03*
Y830118D02*
D03*
X671587Y840118D02*
D03*
Y830118D02*
D03*
X661587Y840118D02*
D03*
Y830118D02*
D03*
X651587Y840118D02*
D03*
Y830118D02*
D03*
X641587Y840118D02*
D03*
Y830118D02*
D03*
X631488Y840118D02*
D03*
X631587Y830118D02*
D03*
X621587Y840118D02*
D03*
Y830118D02*
D03*
X611587Y840118D02*
D03*
Y830118D02*
D03*
X601587Y840118D02*
D03*
Y830118D02*
D03*
X591587Y840118D02*
D03*
Y830118D02*
D03*
X581587Y840118D02*
D03*
Y830118D02*
D03*
X571587Y840118D02*
D03*
Y830118D02*
D03*
X561587Y840118D02*
D03*
Y830118D02*
D03*
X551587Y840118D02*
D03*
Y830118D02*
D03*
X541587Y840118D02*
D03*
Y830118D02*
D03*
X531587Y840118D02*
D03*
Y830118D02*
D03*
X521587Y840118D02*
D03*
Y830118D02*
D03*
X511587Y840118D02*
D03*
Y830118D02*
D03*
X501587Y840118D02*
D03*
Y830118D02*
D03*
X491587Y840118D02*
D03*
Y830118D02*
D03*
X481587Y840118D02*
D03*
Y830118D02*
D03*
X471587Y840118D02*
D03*
Y830118D02*
D03*
X86642Y415724D02*
D03*
Y425724D02*
D03*
X336642Y415724D02*
D03*
X326642Y425724D02*
D03*
Y415724D02*
D03*
X316642Y425724D02*
D03*
Y415724D02*
D03*
X306642Y425724D02*
D03*
Y415724D02*
D03*
X296642Y425724D02*
D03*
Y415724D02*
D03*
X286642Y425724D02*
D03*
Y415724D02*
D03*
X276642Y425724D02*
D03*
Y415724D02*
D03*
X266642Y425724D02*
D03*
Y415724D02*
D03*
X256543Y425724D02*
D03*
X256642Y415724D02*
D03*
X246642Y425724D02*
D03*
Y415724D02*
D03*
X236642Y425724D02*
D03*
Y415724D02*
D03*
X226642Y425724D02*
D03*
Y415724D02*
D03*
X216642Y425724D02*
D03*
Y415724D02*
D03*
X206642Y425724D02*
D03*
Y415724D02*
D03*
X196642Y425724D02*
D03*
Y415724D02*
D03*
X186642Y425724D02*
D03*
Y415724D02*
D03*
X176642Y425724D02*
D03*
Y415724D02*
D03*
X166642Y425724D02*
D03*
Y415724D02*
D03*
X156642Y425724D02*
D03*
Y415724D02*
D03*
X146642Y425724D02*
D03*
Y415724D02*
D03*
X136642Y425724D02*
D03*
Y415724D02*
D03*
X126642Y425724D02*
D03*
Y415724D02*
D03*
X116642Y425724D02*
D03*
Y415724D02*
D03*
X106642Y425724D02*
D03*
Y415724D02*
D03*
X96642Y425724D02*
D03*
Y415724D02*
D03*
X82598Y21654D02*
D03*
Y31654D02*
D03*
X332598Y21654D02*
D03*
X322598Y31654D02*
D03*
Y21654D02*
D03*
X312598Y31654D02*
D03*
Y21654D02*
D03*
X302598Y31654D02*
D03*
Y21654D02*
D03*
X292598Y31654D02*
D03*
Y21654D02*
D03*
X282598Y31654D02*
D03*
Y21654D02*
D03*
X272598Y31654D02*
D03*
Y21654D02*
D03*
X262598Y31654D02*
D03*
Y21654D02*
D03*
X252500Y31654D02*
D03*
X252598Y21654D02*
D03*
X242598Y31654D02*
D03*
Y21654D02*
D03*
X232598Y31654D02*
D03*
Y21654D02*
D03*
X222598Y31654D02*
D03*
Y21654D02*
D03*
X212598Y31654D02*
D03*
Y21654D02*
D03*
X202598Y31654D02*
D03*
Y21654D02*
D03*
X192598Y31654D02*
D03*
Y21654D02*
D03*
X182598Y31654D02*
D03*
Y21654D02*
D03*
X172598Y31654D02*
D03*
Y21654D02*
D03*
X162598Y31654D02*
D03*
Y21654D02*
D03*
X152598Y31654D02*
D03*
Y21654D02*
D03*
X142598Y31654D02*
D03*
Y21654D02*
D03*
X132598Y31654D02*
D03*
Y21654D02*
D03*
X122598Y31654D02*
D03*
Y21654D02*
D03*
X112598Y31654D02*
D03*
Y21654D02*
D03*
X102598Y31654D02*
D03*
Y21654D02*
D03*
X92598Y31654D02*
D03*
Y21654D02*
D03*
X470839Y395724D02*
D03*
Y405724D02*
D03*
X480839Y395724D02*
D03*
Y405724D02*
D03*
X490839Y395724D02*
D03*
Y405724D02*
D03*
X500839Y395724D02*
D03*
Y405724D02*
D03*
X510839Y395724D02*
D03*
Y405724D02*
D03*
X520839Y395724D02*
D03*
Y405724D02*
D03*
X530839Y395724D02*
D03*
Y405724D02*
D03*
X540839Y395724D02*
D03*
Y405724D02*
D03*
X550839Y395724D02*
D03*
Y405724D02*
D03*
X560839Y395724D02*
D03*
Y405724D02*
D03*
X570839Y395724D02*
D03*
Y405724D02*
D03*
X580839Y395724D02*
D03*
Y405724D02*
D03*
X590839Y395724D02*
D03*
Y405724D02*
D03*
X600839Y395724D02*
D03*
Y405724D02*
D03*
X610839Y395724D02*
D03*
Y405724D02*
D03*
X620839Y395724D02*
D03*
Y405724D02*
D03*
X630839Y395724D02*
D03*
X630740Y405724D02*
D03*
X640839Y395724D02*
D03*
Y405724D02*
D03*
X650839Y395724D02*
D03*
Y405724D02*
D03*
X660839Y395724D02*
D03*
Y405724D02*
D03*
X670839Y395724D02*
D03*
Y405724D02*
D03*
X680839Y395724D02*
D03*
Y405724D02*
D03*
X690839Y395724D02*
D03*
Y405724D02*
D03*
X700839Y395724D02*
D03*
Y405724D02*
D03*
X710839Y395724D02*
D03*
X460839Y405724D02*
D03*
Y395724D02*
D03*
X460630Y21709D02*
D03*
Y31709D02*
D03*
X710630Y21709D02*
D03*
X700630Y31709D02*
D03*
Y21709D02*
D03*
X690630Y31709D02*
D03*
Y21709D02*
D03*
X680630Y31709D02*
D03*
Y21709D02*
D03*
X670630Y31709D02*
D03*
Y21709D02*
D03*
X660630Y31709D02*
D03*
Y21709D02*
D03*
X650630Y31709D02*
D03*
Y21709D02*
D03*
X640630Y31709D02*
D03*
Y21709D02*
D03*
X630532Y31709D02*
D03*
X630630Y21709D02*
D03*
X620630Y31709D02*
D03*
Y21709D02*
D03*
X610630Y31709D02*
D03*
Y21709D02*
D03*
X600630Y31709D02*
D03*
Y21709D02*
D03*
X590630Y31709D02*
D03*
Y21709D02*
D03*
X580630Y31709D02*
D03*
Y21709D02*
D03*
X570630Y31709D02*
D03*
Y21709D02*
D03*
X560630Y31709D02*
D03*
Y21709D02*
D03*
X550630Y31709D02*
D03*
Y21709D02*
D03*
X540630Y31709D02*
D03*
Y21709D02*
D03*
X530630Y31709D02*
D03*
Y21709D02*
D03*
X520630Y31709D02*
D03*
Y21709D02*
D03*
X510630Y31709D02*
D03*
Y21709D02*
D03*
X500630Y31709D02*
D03*
Y21709D02*
D03*
X490630Y31709D02*
D03*
Y21709D02*
D03*
X480630Y31709D02*
D03*
Y21709D02*
D03*
X470630Y31709D02*
D03*
Y21709D02*
D03*
X844067Y395780D02*
D03*
Y405780D02*
D03*
X854067Y395780D02*
D03*
Y405780D02*
D03*
X864067Y395780D02*
D03*
Y405780D02*
D03*
X874067Y395780D02*
D03*
Y405780D02*
D03*
X884067Y395780D02*
D03*
Y405780D02*
D03*
X894067Y395780D02*
D03*
Y405780D02*
D03*
X904067Y395780D02*
D03*
Y405780D02*
D03*
X914067Y395780D02*
D03*
Y405780D02*
D03*
X924067Y395780D02*
D03*
Y405780D02*
D03*
X934067Y395780D02*
D03*
Y405780D02*
D03*
X944067Y395780D02*
D03*
Y405780D02*
D03*
X954067Y395780D02*
D03*
Y405780D02*
D03*
X964067Y395780D02*
D03*
Y405780D02*
D03*
X974067Y395780D02*
D03*
Y405780D02*
D03*
X984067Y395780D02*
D03*
Y405780D02*
D03*
X994067Y395780D02*
D03*
Y405780D02*
D03*
X1004067Y395780D02*
D03*
X1003969Y405780D02*
D03*
X1014067Y395780D02*
D03*
Y405780D02*
D03*
X1024067Y395780D02*
D03*
Y405780D02*
D03*
X1034067Y395780D02*
D03*
Y405780D02*
D03*
X1044067Y395780D02*
D03*
Y405780D02*
D03*
X1054067Y395780D02*
D03*
Y405780D02*
D03*
X1064067Y395780D02*
D03*
Y405780D02*
D03*
X1074067Y395780D02*
D03*
Y405780D02*
D03*
X1084067Y395780D02*
D03*
X834067Y405780D02*
D03*
Y395780D02*
D03*
X834567Y21654D02*
D03*
Y31653D02*
D03*
X1084567Y21654D02*
D03*
X1074567Y31653D02*
D03*
Y21654D02*
D03*
X1064567Y31653D02*
D03*
Y21654D02*
D03*
X1054567Y31653D02*
D03*
Y21654D02*
D03*
X1044567Y31653D02*
D03*
Y21654D02*
D03*
X1034567Y31653D02*
D03*
Y21654D02*
D03*
X1024567Y31653D02*
D03*
Y21654D02*
D03*
X1014567Y31653D02*
D03*
Y21654D02*
D03*
X1004469Y31653D02*
D03*
X1004567Y21654D02*
D03*
X994567Y31653D02*
D03*
Y21654D02*
D03*
X984567Y31653D02*
D03*
Y21654D02*
D03*
X974567Y31653D02*
D03*
Y21654D02*
D03*
X964567Y31653D02*
D03*
Y21654D02*
D03*
X954567Y31653D02*
D03*
Y21654D02*
D03*
X944567Y31653D02*
D03*
Y21654D02*
D03*
X934567Y31653D02*
D03*
Y21654D02*
D03*
X924567Y31653D02*
D03*
Y21654D02*
D03*
X914567Y31653D02*
D03*
Y21654D02*
D03*
X904567Y31653D02*
D03*
Y21654D02*
D03*
X894567Y31653D02*
D03*
Y21654D02*
D03*
X884567Y31653D02*
D03*
Y21654D02*
D03*
X874567Y31653D02*
D03*
Y21654D02*
D03*
X864567Y31653D02*
D03*
Y21654D02*
D03*
X854567Y31653D02*
D03*
Y21654D02*
D03*
X844567Y31653D02*
D03*
Y21654D02*
D03*
X461587Y810118D02*
D03*
Y820118D02*
D03*
X711587Y810118D02*
D03*
X701587Y820118D02*
D03*
Y810118D02*
D03*
X691587Y820118D02*
D03*
Y810118D02*
D03*
X681587Y820118D02*
D03*
Y810118D02*
D03*
X671587Y820118D02*
D03*
Y810118D02*
D03*
X661587Y820118D02*
D03*
Y810118D02*
D03*
X651587Y820118D02*
D03*
Y810118D02*
D03*
X641587Y820118D02*
D03*
Y810118D02*
D03*
X631488Y820118D02*
D03*
X631587Y810118D02*
D03*
X621587Y820118D02*
D03*
Y810118D02*
D03*
X611587Y820118D02*
D03*
Y810118D02*
D03*
X601587Y820118D02*
D03*
Y810118D02*
D03*
X591587Y820118D02*
D03*
Y810118D02*
D03*
X581587Y820118D02*
D03*
Y810118D02*
D03*
X571587Y820118D02*
D03*
Y810118D02*
D03*
X561587Y820118D02*
D03*
Y810118D02*
D03*
X551587Y820118D02*
D03*
Y810118D02*
D03*
X541587Y820118D02*
D03*
Y810118D02*
D03*
X531587Y820118D02*
D03*
Y810118D02*
D03*
X521587Y820118D02*
D03*
Y810118D02*
D03*
X511587Y820118D02*
D03*
Y810118D02*
D03*
X501587Y820118D02*
D03*
Y810118D02*
D03*
X491587Y820118D02*
D03*
Y810118D02*
D03*
X481587Y820118D02*
D03*
Y810118D02*
D03*
X471587Y820118D02*
D03*
Y810118D02*
D03*
X96640Y395724D02*
D03*
Y405724D02*
D03*
X106640Y395724D02*
D03*
Y405724D02*
D03*
X116640Y395724D02*
D03*
Y405724D02*
D03*
X126640Y395724D02*
D03*
Y405724D02*
D03*
X136640Y395724D02*
D03*
Y405724D02*
D03*
X146640Y395724D02*
D03*
Y405724D02*
D03*
X156640Y395724D02*
D03*
Y405724D02*
D03*
X166640Y395724D02*
D03*
Y405724D02*
D03*
X176640Y395724D02*
D03*
Y405724D02*
D03*
X186640Y395724D02*
D03*
Y405724D02*
D03*
X196640Y395724D02*
D03*
Y405724D02*
D03*
X206640Y395724D02*
D03*
Y405724D02*
D03*
X216640Y395724D02*
D03*
Y405724D02*
D03*
X226640Y395724D02*
D03*
Y405724D02*
D03*
X236640Y395724D02*
D03*
Y405724D02*
D03*
X246640Y395724D02*
D03*
Y405724D02*
D03*
X256640Y395724D02*
D03*
X256541Y405724D02*
D03*
X266640Y395724D02*
D03*
Y405724D02*
D03*
X276640Y395724D02*
D03*
Y405724D02*
D03*
X286640Y395724D02*
D03*
Y405724D02*
D03*
X296640Y395724D02*
D03*
Y405724D02*
D03*
X306640Y395724D02*
D03*
Y405724D02*
D03*
X316640Y395724D02*
D03*
Y405724D02*
D03*
X326640Y395724D02*
D03*
Y405724D02*
D03*
X336640Y395724D02*
D03*
X86640Y405724D02*
D03*
Y395724D02*
D03*
X848976Y800298D02*
D03*
X838976D02*
D03*
X828976D02*
D03*
X818976D02*
D03*
X808976D02*
D03*
X858976Y810298D02*
D03*
X848976D02*
D03*
X838976D02*
D03*
X828976D02*
D03*
X818976D02*
D03*
X808976D02*
D03*
X928543Y833071D02*
D03*
X1002658Y827953D02*
D03*
X1006693Y846752D02*
D03*
X1064272Y847706D02*
D03*
X1084252Y824213D02*
D03*
X1064272Y836024D02*
D03*
X1055118Y770253D02*
D03*
X1042432Y770230D02*
D03*
X1028575D02*
D03*
X989637Y756590D02*
D03*
X946913Y754351D02*
D03*
X933883Y754351D02*
D03*
X170000Y780472D02*
D03*
X180000D02*
D03*
X190000D02*
D03*
X200000D02*
D03*
X210000D02*
D03*
X220000D02*
D03*
X170000Y770472D02*
D03*
X180000D02*
D03*
X190000D02*
D03*
X200000D02*
D03*
X210000D02*
D03*
X304803Y781654D02*
D03*
X314803D02*
D03*
X324803D02*
D03*
X334803D02*
D03*
X344803D02*
D03*
X354803D02*
D03*
X304803Y771654D02*
D03*
X314803D02*
D03*
X324803D02*
D03*
X334803D02*
D03*
X344803D02*
D03*
X21929Y710728D02*
D03*
D58*
X352798Y21709D02*
D03*
X367921Y358957D02*
D03*
X52862D02*
D03*
X62705Y21654D02*
D03*
X440945Y395724D02*
D03*
X431103Y733028D02*
D03*
X746162D02*
D03*
X731038Y395779D02*
D03*
X730829Y21764D02*
D03*
X745953Y359012D02*
D03*
X430894D02*
D03*
X440736Y21709D02*
D03*
X814173Y395780D02*
D03*
X804331Y733083D02*
D03*
X1119390D02*
D03*
X1104266Y395835D02*
D03*
X1104766Y21709D02*
D03*
X1119890Y358957D02*
D03*
X804831D02*
D03*
X814673Y21654D02*
D03*
X731786Y810173D02*
D03*
X441693Y810118D02*
D03*
X356534Y395724D02*
D03*
X66439Y395779D02*
D03*
X51317Y733028D02*
D03*
X366376D02*
D03*
X293209Y822835D02*
D03*
X368209D02*
D03*
X232480D02*
D03*
X157480D02*
D03*
X19685Y433071D02*
D03*
X1161417D02*
D03*
X1161417Y19685D02*
D03*
X19685Y19685D02*
D03*
Y846457D02*
D03*
X399606D02*
D03*
X781496D02*
D03*
X1161417D02*
D03*
X781496Y19685D02*
D03*
X399606Y19685D02*
D03*
Y433071D02*
D03*
X781496D02*
D03*
D59*
X1166299Y541181D02*
D03*
Y561181D02*
D03*
X1146299D02*
D03*
Y541181D02*
D03*
X1146299Y132047D02*
D03*
X1166299D02*
D03*
Y112047D02*
D03*
X1146299D02*
D03*
X1146299Y179291D02*
D03*
X1166299D02*
D03*
Y159291D02*
D03*
X1146299D02*
D03*
Y273780D02*
D03*
X1166299D02*
D03*
Y253780D02*
D03*
X1146299D02*
D03*
Y321024D02*
D03*
X1166299D02*
D03*
Y301024D02*
D03*
X1146299D02*
D03*
X1146299Y493937D02*
D03*
Y513937D02*
D03*
X1166299D02*
D03*
Y493937D02*
D03*
X1146299Y694422D02*
D03*
X1166299D02*
D03*
Y674422D02*
D03*
X1146299D02*
D03*
Y627178D02*
D03*
Y647178D02*
D03*
X1166299D02*
D03*
Y627178D02*
D03*
D60*
X1156299Y551181D02*
D03*
X1156299Y122047D02*
D03*
X1156299Y169291D02*
D03*
Y263780D02*
D03*
Y311024D02*
D03*
X1156299Y503937D02*
D03*
X1156299Y684422D02*
D03*
Y637178D02*
D03*
D61*
X954429Y842224D02*
D03*
X974114D02*
D03*
D62*
X978051Y852854D02*
D03*
X950492D02*
D03*
D63*
X54724Y802362D02*
D03*
Y820866D02*
D03*
Y839370D02*
D03*
X106783Y802362D02*
D03*
Y820866D02*
D03*
Y839370D02*
D03*
D64*
X15256Y600492D02*
D03*
D65*
Y590650D02*
D03*
D66*
X1153582Y190811D02*
D03*
X1150285Y190149D02*
D03*
X1147143Y188953D02*
D03*
X1144217Y187297D02*
D03*
X1141574Y185219D02*
D03*
X1139289Y182753D02*
D03*
X1137391Y179977D02*
D03*
X1135990Y176921D02*
D03*
X1135065Y173688D02*
D03*
X1134638Y170353D02*
D03*
X1134725Y166992D02*
D03*
X1135306Y163681D02*
D03*
X1136455Y160521D02*
D03*
X1138056Y157564D02*
D03*
X1138563Y154241D02*
D03*
Y150878D02*
D03*
Y147516D02*
D03*
Y144154D02*
D03*
Y140792D02*
D03*
Y137429D02*
D03*
X1138261Y134081D02*
D03*
X1136611Y131151D02*
D03*
X1135423Y128006D02*
D03*
X1134772Y124707D02*
D03*
X1134614Y121349D02*
D03*
X1134994Y118008D02*
D03*
X1135873Y114763D02*
D03*
X1137231Y111687D02*
D03*
X1139069Y108872D02*
D03*
X1141302Y106358D02*
D03*
X1143915Y104243D02*
D03*
X1146818Y102545D02*
D03*
X1149943Y101305D02*
D03*
X1153225Y100575D02*
D03*
X1156578Y100335D02*
D03*
X1159925Y100659D02*
D03*
X1163184Y101485D02*
D03*
X1166282Y102793D02*
D03*
X1169141Y104561D02*
D03*
X1171709Y106731D02*
D03*
X1173866Y109311D02*
D03*
X1175613Y112184D02*
D03*
X1176904Y115288D02*
D03*
X1177713Y118551D02*
D03*
X1178020Y121899D02*
D03*
X1177754Y125251D02*
D03*
X1176999Y128527D02*
D03*
X1175743Y131646D02*
D03*
X1174035Y134542D02*
D03*
Y137905D02*
D03*
Y141267D02*
D03*
Y144629D02*
D03*
Y147991D02*
D03*
Y151353D02*
D03*
Y154716D02*
D03*
X1174823Y157984D02*
D03*
X1176336Y160987D02*
D03*
X1177391Y164179D02*
D03*
X1177913Y167501D02*
D03*
X1177927Y170863D02*
D03*
X1177434Y174189D02*
D03*
X1176420Y177394D02*
D03*
X1174945Y180416D02*
D03*
X1172987Y183149D02*
D03*
X1170640Y185556D02*
D03*
X1167956Y187582D02*
D03*
X1164992Y189168D02*
D03*
X1161826Y190301D02*
D03*
X1158514Y190877D02*
D03*
X1153582Y332543D02*
D03*
X1150285Y331882D02*
D03*
X1147143Y330686D02*
D03*
X1144217Y329030D02*
D03*
X1141574Y326951D02*
D03*
X1139289Y324485D02*
D03*
X1137391Y321709D02*
D03*
X1135990Y318653D02*
D03*
X1135065Y315421D02*
D03*
X1134638Y312086D02*
D03*
X1134725Y308725D02*
D03*
X1135306Y305413D02*
D03*
X1136455Y302253D02*
D03*
X1138056Y299297D02*
D03*
X1138563Y295973D02*
D03*
Y292611D02*
D03*
Y289248D02*
D03*
Y285886D02*
D03*
Y282524D02*
D03*
Y279162D02*
D03*
X1138261Y275813D02*
D03*
X1136611Y272883D02*
D03*
X1135423Y269738D02*
D03*
X1134772Y266440D02*
D03*
X1134614Y263081D02*
D03*
X1134994Y259740D02*
D03*
X1135873Y256495D02*
D03*
X1137231Y253419D02*
D03*
X1139069Y250605D02*
D03*
X1141302Y248091D02*
D03*
X1143915Y245975D02*
D03*
X1146818Y244278D02*
D03*
X1149943Y243038D02*
D03*
X1153225Y242307D02*
D03*
X1156578Y242067D02*
D03*
X1159925Y242392D02*
D03*
X1163184Y243217D02*
D03*
X1166282Y244525D02*
D03*
X1169141Y246294D02*
D03*
X1171709Y248464D02*
D03*
X1173866Y251043D02*
D03*
X1175613Y253916D02*
D03*
X1176904Y257020D02*
D03*
X1177713Y260284D02*
D03*
X1178020Y263632D02*
D03*
X1177754Y266984D02*
D03*
X1176999Y270260D02*
D03*
X1175743Y273379D02*
D03*
X1174035Y276275D02*
D03*
Y279637D02*
D03*
Y282999D02*
D03*
Y286362D02*
D03*
Y289724D02*
D03*
Y293086D02*
D03*
Y296448D02*
D03*
X1174823Y299717D02*
D03*
X1176336Y302719D02*
D03*
X1177391Y305912D02*
D03*
X1177913Y309233D02*
D03*
X1177927Y312595D02*
D03*
X1177434Y315921D02*
D03*
X1176420Y319127D02*
D03*
X1174945Y322148D02*
D03*
X1172987Y324882D02*
D03*
X1170640Y327289D02*
D03*
X1167956Y329314D02*
D03*
X1164992Y330900D02*
D03*
X1161826Y332033D02*
D03*
X1158514Y332609D02*
D03*
X1153582Y572700D02*
D03*
X1150285Y572039D02*
D03*
X1147143Y570843D02*
D03*
X1144217Y569187D02*
D03*
X1141574Y567109D02*
D03*
X1139289Y564642D02*
D03*
X1137391Y561867D02*
D03*
X1135990Y558811D02*
D03*
X1135065Y555578D02*
D03*
X1134638Y552243D02*
D03*
X1134725Y548882D02*
D03*
X1135306Y545571D02*
D03*
X1136455Y542411D02*
D03*
X1138056Y539454D02*
D03*
X1138563Y536130D02*
D03*
Y532768D02*
D03*
Y529406D02*
D03*
Y526044D02*
D03*
Y522682D02*
D03*
Y519319D02*
D03*
X1138261Y515971D02*
D03*
X1136611Y513041D02*
D03*
X1135423Y509896D02*
D03*
X1134773Y506597D02*
D03*
X1134615Y503239D02*
D03*
X1134994Y499898D02*
D03*
X1135873Y496653D02*
D03*
X1137231Y493577D02*
D03*
X1139069Y490762D02*
D03*
X1141302Y488248D02*
D03*
X1143915Y486132D02*
D03*
X1146818Y484435D02*
D03*
X1149943Y483195D02*
D03*
X1153225Y482465D02*
D03*
X1156579Y482225D02*
D03*
X1159925Y482549D02*
D03*
X1163184Y483375D02*
D03*
X1166282Y484682D02*
D03*
X1169141Y486451D02*
D03*
X1171709Y488621D02*
D03*
X1173866Y491201D02*
D03*
X1175613Y494073D02*
D03*
X1176904Y497178D02*
D03*
X1177713Y500441D02*
D03*
X1178020Y503789D02*
D03*
X1177755Y507141D02*
D03*
X1176999Y510417D02*
D03*
X1175743Y513536D02*
D03*
X1174036Y516432D02*
D03*
Y519794D02*
D03*
Y523157D02*
D03*
Y526519D02*
D03*
Y529881D02*
D03*
Y533243D02*
D03*
Y536605D02*
D03*
X1174823Y539874D02*
D03*
X1176336Y542877D02*
D03*
X1177391Y546069D02*
D03*
X1177913Y549391D02*
D03*
X1177927Y552753D02*
D03*
X1177434Y556079D02*
D03*
X1176420Y559284D02*
D03*
X1174945Y562306D02*
D03*
X1172988Y565039D02*
D03*
X1170640Y567446D02*
D03*
X1167956Y569472D02*
D03*
X1164992Y571058D02*
D03*
X1161826Y572191D02*
D03*
X1158514Y572767D02*
D03*
X1153582Y705941D02*
D03*
X1150285Y705280D02*
D03*
X1147143Y704084D02*
D03*
X1144217Y702428D02*
D03*
X1141574Y700350D02*
D03*
X1139289Y697883D02*
D03*
X1137391Y695108D02*
D03*
X1135990Y692051D02*
D03*
X1135065Y688819D02*
D03*
X1134638Y685484D02*
D03*
X1134725Y682123D02*
D03*
X1135306Y678811D02*
D03*
X1136455Y675651D02*
D03*
X1138056Y672695D02*
D03*
X1138563Y669371D02*
D03*
Y666009D02*
D03*
Y662647D02*
D03*
Y659284D02*
D03*
Y655922D02*
D03*
Y652560D02*
D03*
X1138260Y649211D02*
D03*
X1136611Y646282D02*
D03*
X1135423Y643137D02*
D03*
X1134772Y639838D02*
D03*
X1134614Y636479D02*
D03*
X1134994Y633139D02*
D03*
X1135872Y629893D02*
D03*
X1137231Y626818D02*
D03*
X1139069Y624003D02*
D03*
X1141302Y621489D02*
D03*
X1143915Y619373D02*
D03*
X1146817Y617676D02*
D03*
X1149943Y616436D02*
D03*
X1153225Y615705D02*
D03*
X1156578Y615465D02*
D03*
X1159925Y615790D02*
D03*
X1163184Y616615D02*
D03*
X1166282Y617923D02*
D03*
X1169141Y619692D02*
D03*
X1171709Y621862D02*
D03*
X1173866Y624441D02*
D03*
X1175612Y627314D02*
D03*
X1176904Y630418D02*
D03*
X1177713Y633682D02*
D03*
X1178020Y637030D02*
D03*
X1177754Y640382D02*
D03*
X1176999Y643658D02*
D03*
X1175743Y646777D02*
D03*
X1174035Y649673D02*
D03*
Y653035D02*
D03*
Y656397D02*
D03*
Y659760D02*
D03*
Y663122D02*
D03*
Y666484D02*
D03*
Y669846D02*
D03*
X1174823Y673115D02*
D03*
X1176336Y676117D02*
D03*
X1177391Y679310D02*
D03*
X1177912Y682631D02*
D03*
X1177927Y685993D02*
D03*
X1177434Y689319D02*
D03*
X1176420Y692525D02*
D03*
X1174945Y695546D02*
D03*
X1172987Y698280D02*
D03*
X1170640Y700687D02*
D03*
X1167956Y702712D02*
D03*
X1164991Y704298D02*
D03*
X1161826Y705432D02*
D03*
X1158514Y706007D02*
D03*
M02*
